<svg width="226" height="189" viewBox="0 0 226 189" fill="none" xmlns="http://www.w3.org/2000/svg">
<g clip-path="url(#clip0_1026_1654)">
<path d="M100.498 45.3931C105.9 49.8107 115.783 52.7829 123.649 49.7432C129.917 47.325 132.964 43.4477 135.563 37.1927C138.027 31.262 137.648 23.9803 134.9 18.9412C133.789 16.9283 131.407 13.6724 129.2 12.2404C127.088 10.8759 124.191 10.1059 121.645 9.22775C119.046 8.33612 114.822 8.06592 111.41 8.39015C109.677 8.55227 107.958 8.78193 106.55 9.38987C102.664 11.0786 98.2776 14.0777 96.1521 17.2525C95.0961 18.8331 93.1194 22.3456 92.7945 24.4531C91.9416 29.9245 92.9028 35.7607 95.1367 39.3543C96.2875 41.2051 98.9817 44.1367 100.498 45.3796V45.3931ZM100.66 28.8167C101.297 24.3721 103.883 20.5353 106.36 18.4413C106.604 18.2387 107.321 17.6713 107.863 18.4413C107.998 19.7383 106.753 20.5894 106.022 21.454C104.451 23.3318 103.084 25.2502 102.502 28.3169C102.258 29.6003 102.502 31.208 101.662 32.5049C99.7127 32.3022 100.484 29.9921 100.66 28.8167ZM112.06 40.0298C112.209 40.4486 112.385 41.3267 112.06 41.705C110.11 41.7995 108.757 40.0298 106.699 39.692C106.807 36.7334 110.706 39.611 112.06 40.0298ZM109.379 37.1792C110.219 36.4497 112.128 36.9496 111.721 38.5167C110.855 39.1651 109.122 38.6518 109.379 37.1792ZM113.238 44.2042C113.211 44.3934 113.278 44.5014 113.4 44.542C112.696 46.1361 108.689 45.1499 107.2 44.3799C105.751 43.6233 104.844 42.0697 103.842 41.5293C103.72 40.7998 104.14 40.5972 104.519 40.354C106.062 40.327 106.848 42.2048 108.215 42.8668C109.934 43.7044 111.6 42.9613 113.251 44.2042H113.238ZM105.182 27.4658C104.275 26.1418 106.279 23.0887 107.701 24.6152C107.24 25.9527 106.983 27.4793 105.182 27.4658ZM112.222 49.0542C107.308 48.73 103.531 46.6765 101.148 43.8665C101.216 43.3666 101.432 43.0424 101.811 42.8668C103.355 42.9613 104.438 44.7581 106.171 45.7173C107.619 46.5144 109.664 47.0683 111.708 47.2304C113.13 47.3385 115.269 46.5819 116.406 48.068C115.824 49.6621 113.454 49.1488 112.209 49.0677L112.222 49.0542ZM122.282 38.0033C122.133 36.0174 123.839 34.5989 124.123 32.3157C124.245 31.3701 123.92 30.4244 124.285 29.3031C124.759 28.9654 124.976 29.0059 125.626 29.141C126.479 32.1266 125.152 38.2735 122.268 38.0168L122.282 38.0033ZM123.784 45.8659C123.229 44.6636 124.461 43.826 124.962 43.0154C127.399 39.1246 129.66 33.0318 128.482 26.2769C128.726 26.2769 129.173 25.6555 129.322 26.1148C131.041 27.2496 130.648 30.9513 130.5 33.1533C130.324 35.8147 129.308 38.3275 128.157 40.6782C127.088 42.8533 126.113 46.1226 123.798 45.8659H123.784ZM134.521 26.1148C135.725 27.6144 135.076 30.3568 134.521 32.64C134.006 34.734 133.573 37.2738 132.842 38.6653C132.219 39.8541 130.621 42.1778 129.146 41.0024C129.078 39.611 130.527 39.1246 131.163 37.9898C132.639 35.3149 132.964 30.1137 133.505 26.439C133.857 26.3445 133.979 26.0202 134.507 26.1013L134.521 26.1148ZM128.983 14.5641C128.794 14.537 128.685 14.6046 128.645 14.7262C127.277 14.3074 126.424 13.3752 125.463 12.5511C126.181 10.295 129.836 12.6862 128.983 14.5641ZM125.463 13.5643C126.6 14.1588 127.832 15.6989 128.983 17.0769C130.148 18.4684 132.029 20.076 131 21.427C129.511 21.3459 128.821 19.7248 127.981 18.7521C126.912 17.4957 126.018 15.834 124.461 15.0639C123.311 14.51 121.537 14.9558 120.603 13.7265C120.725 11.9567 124.163 12.8754 125.463 13.5643ZM121.104 18.0901C121.659 17.8739 125.247 20.2651 124.962 21.7647C124.867 22.2375 124.448 22.5618 124.123 22.6023C123.338 22.6834 123.771 22.0754 122.945 21.2649C122.376 20.6974 118.924 18.9547 121.104 18.0901ZM122.282 24.2775C121.131 23.9127 119.235 24.3045 118.924 23.1022C119.357 21.0622 124.326 22.4132 122.282 24.2775ZM111.545 23.4399C116.474 21.9403 121.158 25.669 121.943 28.9654C123.446 35.2744 117.706 40.408 111.207 37.0036C109.623 36.166 107.66 34.4097 107.186 32.8156C105.927 28.6546 109.014 24.21 111.545 23.4399ZM94.7712 31.8159C95.2992 27.4252 95.8813 25.0746 97.6143 22.2781C98.4807 20.8866 98.765 19.7383 99.794 18.4278C102.326 15.199 106.929 12.7268 110.029 11.0651C112.371 11.8756 109.528 13.3347 108.526 13.9156C105.873 15.4422 102.894 17.3335 101.148 19.6032C98.3047 23.2913 96.2739 28.8843 96.4499 33.5046C96.477 34.3152 97.3841 36.5443 95.773 36.6794C94.1213 36.828 94.5952 33.2614 94.7712 31.8294V31.8159Z" fill="#0CC2FF"/>
<path d="M117.098 34.3419C118.1 33.842 118.939 31.667 118.614 29.9918C118.208 27.8707 115.433 26.0334 112.915 26.8035C111.046 27.3844 109.95 29.3703 110.396 31.4913C110.803 33.4908 114.905 35.4361 117.098 34.3419ZM115.257 29.654C115.893 32.8693 112.089 32.6802 111.899 30.6537C111.737 28.938 114.065 28.0734 115.257 29.654Z" fill="#E7F2FC"/>
<path d="M118.613 56.1056C118.017 56.2002 117.503 56.6865 116.934 56.6055C115.77 56.4569 115.743 55.214 114.754 55.4301C110.138 56.4704 103.463 57.5782 100.823 61.1177C97.1272 66.1028 99.3475 76.181 99.6453 83.0439C99.862 87.9749 99.1173 92.0413 101.663 94.5946C102.245 92.4196 103.274 89.569 103.68 87.0697C103.815 86.2186 103.301 84.7056 104.682 84.5569C106.442 85.8404 105.128 88.4477 104.682 90.2445C104.181 92.271 103.802 94.5001 103.003 95.9321C103.653 96.9588 104.614 97.6748 105.86 98.1071C106.455 95.5538 107.051 91.69 107.2 88.3937C107.268 86.759 106.55 84.2057 108.378 83.7058C109.434 84.4624 109.095 86.097 109.055 87.3805C108.906 91.4063 108.391 95.9726 107.376 98.9312C108.202 99.0663 108.581 99.6202 109.556 99.5932C110.585 95.9996 110.774 90.7579 111.058 86.5429C111.14 85.2865 110.882 83.287 112.399 83.0304C113.455 83.868 112.981 85.7188 112.9 87.0427C112.642 91.609 112.074 96.3509 111.383 100.093C112.399 100.147 113.252 100.35 114.24 100.431C114.971 96.3238 116.176 90.0554 116.758 86.3672C116.948 85.1919 116.46 83.7464 117.76 83.8544C119.127 83.976 118.464 86.6239 118.261 87.7047C117.449 91.9737 116.866 96.7832 116.081 100.593C117.218 100.458 117.868 100.823 118.938 100.755C120.021 97.1885 121.239 91.4739 121.456 87.5291C121.537 85.9755 120.969 83.26 122.295 83.179C123.676 83.0844 123.392 85.9755 123.297 87.367C122.986 92.2574 121.795 96.7156 120.955 100.593C121.93 100.958 123.568 100.66 124.814 100.755C124.11 99.985 125.193 99.1879 125.491 98.0801C126.154 95.5403 126.56 89.5555 126.668 87.0292C126.736 85.4216 126.276 83.3411 127.508 83.3411C128.943 83.3411 128.388 88.137 128.347 88.8665C128.117 92.6357 127.21 98.1341 126.668 100.917H130.527C130.351 100.471 130.324 99.8904 130.364 99.2419C131.163 95.3241 132.246 90.7444 132.72 86.5158C132.856 85.273 132.355 83.1384 133.898 82.6656C135.374 83.5032 134.575 85.5837 134.399 87.0157C133.898 91.2307 133.221 95.1215 132.382 98.9042C132.233 99.5527 131.827 100.201 132.043 100.742C133.627 100.647 134.846 100.201 136.565 100.242C137.256 97.0939 138.136 92.5006 138.406 88.6909C138.542 86.8131 137.594 83.8274 139.584 83.1655C140.64 84.3543 140.383 86.8806 140.261 88.5153C139.977 92.3385 138.975 96.594 138.582 100.066C139.869 100.12 141.019 100.039 142.102 99.9039C142.211 95.77 143.51 90.1499 143.944 85.8404C144.038 84.8407 143.429 82.9493 145.284 83.1655C146.313 85.5837 145.325 88.6774 144.946 91.3658C144.539 94.2434 144.174 97.0669 143.605 99.5662H147.288C147.288 99.0123 147.003 98.7286 147.125 98.0666C148.222 95.1485 148.79 90.6093 148.966 86.678C149.021 85.354 148.398 83.0574 149.806 82.49C151.011 82.7737 150.632 84.2868 150.645 85.3405C150.699 90.8795 149.779 96.2293 148.628 99.5662H152.825C153.746 95.3106 154.707 89.9068 155.005 85.1784C155.059 84.2597 154.558 82.5305 155.844 82.3279C157.198 83.0033 156.751 85.1108 156.684 86.5158C156.521 89.7582 156.088 92.9464 155.506 95.7294C155.208 97.1615 154.626 98.4584 154.666 99.4041C155.614 99.1744 156.778 99.1609 157.685 98.9042C158.444 94.7837 159.215 90.177 159.865 86.016C160.068 84.6785 159.811 82.8818 161.043 82.1657C162.302 82.5305 161.977 84.7191 161.882 85.6782C161.476 89.8527 159.906 94.7567 159.54 98.9042C160.691 98.661 162.18 98.7421 163.561 98.7421C164.103 94.9729 165.226 90.231 165.402 86.016C165.457 84.9082 164.78 82.3684 166.404 82.1657C167.772 82.8412 167.149 84.5975 167.081 85.8404C166.783 90.4877 166.106 94.9324 165.402 98.7286C166.702 98.607 167.501 98.9852 168.76 98.8907C170.168 95.2161 170.385 90.2175 170.94 85.5026C171.089 84.1787 170.831 81.9631 172.28 81.4903C173.715 82.2603 172.93 84.1787 172.781 85.5026C172.253 90.2445 171.887 95.3512 170.601 99.0663C171.887 98.9447 172.781 99.2284 173.959 99.2284C175.123 94.9999 176.044 89.9473 176.639 85.1649C176.815 83.7329 176.748 81.6254 178.142 80.9769C179.604 81.774 178.657 83.7734 178.481 85.1649C177.804 90.2985 176.856 95.162 175.8 99.3905H178.318C179.564 94.6757 180.931 88.3261 181.838 83.4897C182.014 82.544 181.581 80.6391 183.341 80.8148C184.451 82.1387 183.503 83.895 183.179 85.3405C182.109 89.9743 181.554 95.162 180.159 99.4041C184.451 99.1203 184.316 94.8648 185.033 90.7038C185.453 88.2316 186.008 85.7323 185.873 83.5032C185.995 83.0033 187.064 83.4627 187.051 82.8277C185.995 74.0194 187.078 61.6716 181.513 57.5512C180.119 56.5109 177.79 56.3488 175.137 56.5514C166.404 57.2269 156.264 58.1186 146.123 57.389C141.48 57.0513 136.822 57.0783 132.368 56.7271C127.535 56.3353 122.471 55.4437 118.613 56.0516V56.1056ZM181.351 61.4554C180.715 62.7254 179.428 61.7392 179.171 60.78C177.871 60.3477 176.111 60.3747 175.313 59.4425C176.003 56.9432 181.581 59.2669 181.351 61.4554ZM103.856 65.4678C103.896 66.7242 103.829 67.9131 102.678 67.6429C101.338 67.3321 102.312 64.6167 102.678 63.9547C104.573 60.6043 108.026 57.8349 112.751 56.9297C114.172 56.6595 118.329 56.3218 117.273 58.6049C114.606 58.6049 111.749 58.7805 109.556 59.7802C106.888 60.9826 105.44 63.4684 103.856 65.4678ZM170.953 59.4425C171.116 59.4425 171.089 59.2399 171.116 59.1048C171.847 58.7535 172.93 58.9156 173.133 59.6046C173.228 60.5908 171.901 60.8745 171.116 60.4422C171.116 60.0504 170.831 59.9424 170.953 59.4425ZM169.437 71.4931C168.137 73.1143 162.857 72.3307 159.879 72.3307C155.817 72.3307 152.162 72.4523 149.643 72.1686C147.829 69.7774 146.056 64.4816 150.32 63.7926C155.248 62.9955 165.226 64.1439 169.613 64.1304C170.263 66.0487 170.547 70.1286 169.45 71.4931H169.437ZM129.011 59.1048C133.505 58.8346 142.278 59.8748 147.301 60.2801C149.427 60.4557 151.904 60.4017 154.016 60.118C155.127 59.9694 156.142 59.402 157.198 59.2804C159.337 59.0237 161.436 59.2804 163.412 59.1183C164.333 59.0372 165.443 58.3752 166.269 59.2804C165.876 61.8607 161.043 60.6719 158.213 60.9556C156.711 61.1042 155.397 61.8202 154.192 61.9553C151.268 62.3066 147.328 61.8337 144.634 61.6176C141.859 61.4014 139.259 61.3474 136.24 61.1177C134.033 60.9421 127.914 61.3609 129.024 59.1048H129.011ZM132.869 65.2922C134.71 66.2514 133.966 68.9263 134.385 70.9797C133.614 73.8573 128.252 72.682 123.148 73.1548C121.09 73.3439 112.439 74.8165 110.409 73.3169C109.231 72.4658 108.242 68.7507 108.73 67.116C109.014 66.1838 109.664 66.1703 110.233 65.2787C114.673 64.8599 119.344 64.968 124.665 65.1166C127.589 65.1976 131.38 64.4951 132.883 65.2787L132.869 65.2922ZM122.634 58.0915C122.81 59.1588 122.363 59.6046 121.294 59.429C120.359 58.5374 121.74 57.1459 122.634 58.0915Z" fill="#0CC2FF"/>
<path d="M91.6037 71.6696C91.4413 76.7357 92.1588 80.9372 92.4431 85.571H96.1256C96.2881 80.4373 95.7195 76.0467 95.2862 71.5075C94.0948 71.602 92.5108 71.3048 91.6037 71.6696Z" fill="#E7F2FC"/>
<path d="M186.549 93.5955C187.145 92.8389 187.484 90.083 187.05 89.4075C187.05 90.853 186.292 92.4336 186.549 93.5955Z" fill="#E7F2FC"/>
<path d="M171.779 34.5172C173.891 32.6123 173.16 27.4381 170.777 26.3168C165.375 25.1685 165.037 30.4643 166.756 33.6796C168.124 34.5983 169.613 34.6658 171.793 34.5172H171.779ZM168.76 28.8296C171.495 27.7759 171.562 31.6937 169.762 32.0179C168.002 32.3286 166.729 29.6132 168.76 28.8296Z" fill="#E7F2FC"/>
<path d="M154.666 114.183C158.416 121.83 160.474 131.152 163.723 139.284C162.085 130.544 160.176 122.073 158.525 113.346C157.171 113.562 156.06 114.008 154.666 114.183Z" fill="#E7F2FC"/>
<path d="M151.66 68.9942C156.575 68.8861 161.95 69.2103 166.593 68.8321C166.499 68.116 166.715 67.7243 166.756 67.1569H151.322C151.268 67.9404 151.457 68.4808 151.66 69.0077V68.9942Z" fill="#E7F2FC"/>
<path d="M157.022 102.471C148.98 103.43 139.381 102.836 131.868 104.309C131.813 106.268 131.935 108.037 132.368 109.496C141.29 109.929 151.282 111.847 158.863 109.834C158.024 107.605 157.686 104.876 157.022 102.471ZM151.661 107.659C146.99 108.186 139.774 108.199 136.064 106.821C136.037 106.416 136.037 106.011 136.227 105.822C139.679 105.295 144.012 106.686 148.804 106.322C152.081 106.078 155.005 105.173 157.185 105.984C157.076 108.267 153.787 107.416 151.647 107.659H151.661Z" fill="#E7F2FC"/>
<path d="M173.959 53.2549C178.86 52.3903 183.91 48.9183 186.537 45.7165C188.256 43.6225 190.26 40.6504 191.072 38.3538C192.182 35.179 192.223 30.4101 191.911 26.803C191.451 21.6288 188.716 17.3733 185.873 14.928C182.123 11.6992 176.694 9.24046 169.938 9.74032C169.83 9.74032 169.708 9.74032 169.6 9.74032C161.544 9.74032 156.169 12.3612 152.825 16.7653C150.795 19.4538 147.721 25.5196 147.288 29.4914C146.95 32.6392 147.572 38.7861 148.29 41.2043C149.508 45.3112 154.342 50.2017 157.848 51.9175C162.546 54.2141 168.747 54.1736 173.946 53.2549H173.959ZM172.781 51.7418C171.671 52.1066 167.921 53.1468 168.083 51.4041C168.178 50.4719 168.991 50.8502 170.263 50.5665C172.01 50.1747 173.973 48.6751 175.8 48.7292C176.369 48.7427 176.884 48.54 176.978 49.3912C177.087 50.4179 174.325 51.2285 172.781 51.7418ZM179.32 45.7165C177.222 46.9189 174.717 48.1618 171.766 48.3914C169.938 48.54 164.848 49.0399 164.726 47.716C164.577 46.1083 170.561 46.7162 172.104 46.5406C176.166 46.1083 180.309 42.8525 181.839 41.6906C182.231 41.3934 182.881 41.0692 183.341 41.8528C183.003 43.609 180.959 44.7709 179.32 45.703V45.7165ZM170.263 42.5282C174.122 42.2445 176.843 40.4207 179.659 39.0157C180.241 38.732 180.932 39.3535 180.999 39.6912C181.216 40.7044 176.261 43.1092 175.462 43.3658C174.514 43.6901 172.876 44.0143 171.603 44.2034C169.464 44.5142 166.161 44.9735 165.565 43.2037C166.73 41.9473 168.652 42.6633 170.263 42.5282ZM167.082 39.0157C168.896 40.0695 172.903 38.7861 174.122 40.0155C173.716 42.3932 165.308 41.8798 167.082 39.0157ZM184.858 15.4144C185.751 14.7389 187.159 17.1706 187.538 18.0893C188.418 20.2238 189.691 25.3305 189.894 27.1272C190.084 28.843 189.921 30.4776 189.055 30.4776C187.904 30.4776 188.053 26.5598 187.538 24.6144C187.024 22.6285 186.361 20.1833 185.86 18.9269C185.548 18.1433 183.626 16.333 184.858 15.4144ZM179.32 14.239C180.539 13.3069 182.651 16.1439 183.341 17.2517C185.156 20.1292 186.036 23.5202 187.2 27.1272C187.647 28.5187 189.014 31.8556 187.701 32.1528C186.415 32.45 186.117 29.7751 185.684 28.4782C184.411 24.6009 182.678 18.8999 180.823 16.7653C180.512 16.4006 178.075 15.1982 179.307 14.2525L179.32 14.239ZM177.303 17.2517C180.471 17.7786 181.311 21.3451 182.678 24.4523C183.572 26.4923 184.777 28.7889 184.018 30.4776C182.394 30.9099 182.597 29.1807 182.34 28.3026C181.365 24.9387 179.402 20.1968 176.64 18.427C176.64 17.8056 176.911 17.4678 177.303 17.2517ZM176.125 22.1017C176.572 22.1017 177.087 22.0341 177.303 22.2638C177.195 24.6415 179.32 26.2761 178.305 28.4647C177.046 28.6673 176.694 27.9513 176.802 26.7895C176.071 25.8708 175.286 23.5202 176.125 22.1017ZM162.37 27.9648C162.749 25.8708 164.834 23.6147 167.569 23.1149C169.004 22.8582 170.602 22.7906 171.766 23.1149C177.141 24.6415 178.224 35.5573 173.106 37.6783C172.307 38.0025 169.045 38.5024 168.07 38.3403C167.231 38.2052 164.238 36.1382 163.71 35.3276C162.6 33.6254 161.978 30.0588 162.37 27.9648ZM160.691 23.1149C160.258 24.4658 160.312 26.3167 159.351 27.1272C156.982 27.0597 158.674 21.3721 160.691 23.1149ZM150.632 37.5162C148.371 37.1784 149.129 33.5984 149.292 31.4909C149.82 24.5334 152.934 17.2652 156.846 15.0901C157.225 15.0361 157.469 15.1307 157.51 15.4279C157.618 16.9545 156.102 17.8596 155.33 18.9404C152.934 22.3043 151.228 27.0327 150.971 32.6662C150.889 34.3279 151.485 36.4354 150.632 37.5162ZM154.653 32.9904C153.029 32.342 153.557 29.3698 153.814 27.3029C154.179 24.4118 155.506 19.8996 156.833 19.1025C157.442 18.7377 158.254 18.5756 158.674 19.4403C158.647 20.3589 157.767 20.7642 157.334 21.6153C156.427 23.4121 155.655 26.1275 155.493 28.4782C155.398 29.8427 156.088 32.315 154.653 33.0039V32.9904Z" fill="#0CC2FF"/>
<path d="M191.247 85.2323C191.923 82.4763 192.086 79.5042 191.923 75.8566C191.869 74.6813 191.057 70.5203 192.763 70.6689C194.09 70.777 193.548 74.4111 193.602 75.5189C193.765 79.0584 193.751 83.1383 193.101 86.0564C194.022 86.0834 194.496 86.5698 195.444 86.5563C195.633 82.8411 196.676 78.5045 196.946 74.6678C197.055 73.2492 196.296 71.0202 197.623 70.3176C199.099 70.7094 198.842 72.7629 198.801 74.0058C198.639 78.4234 197.285 82.9222 197.285 87.0561C197.894 87.556 198.706 87.8802 199.627 88.0558C199.979 84.9486 200.345 82.1791 200.805 78.6801C201.021 77.0455 200.967 69.5611 202.321 69.4801C203.729 69.3855 203.242 72.1144 203.161 73.668C202.876 79.0584 201.698 83.6247 201.482 88.5692C202.443 88.5557 203.35 89.3257 204 89.069C204.501 84.2191 205.002 78.6666 205.002 73.1682C205.002 71.6821 204.433 69.5341 206.004 68.9802C207.317 69.5746 206.843 71.5065 206.843 72.8304C206.843 78.8963 206.166 84.2866 205.841 89.5689C206.829 89.65 207.506 90.0282 208.522 90.0688C209.199 85.5295 210.417 79.9906 210.702 74.8434C210.81 72.8575 210.187 69.9259 211.703 68.6425C212.082 68.2101 213.044 69.2234 212.705 69.4801C212.421 77.1806 211.446 84.1786 210.187 90.9064C211.026 90.9604 211.514 91.3657 212.204 91.5683C214.831 79.6123 212.624 64.7652 211.026 53.4036C202.89 56.6189 195.159 60.2259 188.715 65.1164C190.407 70.7094 189.554 77.4913 190.394 83.5301C190.461 83.9759 190.394 85.1512 191.233 85.2053L191.247 85.2323ZM207.682 57.6186C207.764 58.2535 207.642 58.6858 207.344 58.956C206.545 59.0911 206.234 58.7129 206.004 58.2941C205.868 57.3079 207.181 56.9971 207.682 57.6186ZM192.925 64.3194C195.782 63.0224 199.004 60.9014 201.482 59.1317C202.105 59.1317 202.443 59.4019 202.66 59.8071C201.82 61.9282 199.126 62.8738 197.122 63.9951C195.146 65.1029 192.858 67.0348 190.407 66.3323C190.082 64.7111 192.086 64.6976 192.925 64.3194Z" fill="#E7F2FC"/>
<path d="M112.738 70.494C118.113 70.5615 122.702 69.832 126.994 68.8188C122.377 68.6701 116.975 68.454 112.399 68.8188C112.088 69.1295 112.602 70.0616 112.738 70.494Z" fill="#E7F2FC"/>
<path d="M133.53 113.183C132.163 123.978 131.594 136.474 132.027 148.498C133.462 136.488 135.954 125.531 137.226 113.346C135.845 113.454 134.789 113.21 133.544 113.183H133.53Z" fill="#E7F2FC"/>
<path d="M142.09 114.183C144.554 127.355 146.923 140.595 148.805 154.347C149.996 149.416 149.685 143.85 149.983 138.284C150.403 130.017 150.876 122.208 150.985 114.183C147.708 114.332 145.244 113.656 142.09 113.683V114.183Z" fill="#E7F2FC"/>
<path d="M225.298 82.7194C226.3 82.3547 225.934 78.572 225.975 76.3564C226.002 74.7217 226.056 73.3707 224.458 74.3434C224.567 76.4915 222.82 82.6114 225.298 82.7194Z" fill="#0F3187"/>
<path d="M149.304 9.40283C151.456 7.05216 153.596 3.80984 156.344 2.53993C157.292 2.10763 161.137 2.01306 160.866 0.702622C160.581 -0.742911 156.425 0.432429 155.491 0.864737C153.839 1.63479 151.944 3.62071 150.292 5.55259C148.749 7.34937 145.946 8.99755 146.596 11.2401C147.828 11.2401 148.559 10.1864 149.277 9.40283H149.304Z" fill="#0F3187"/>
<path d="M110.219 2.04034C110.612 0.2976 108.879 0.594812 107.863 0.702889C106.076 0.905534 102.705 1.32433 102.326 2.5402C104.303 4.17487 107.823 2.16193 110.206 2.04034H110.219Z" fill="#0F3187"/>
<path d="M89.4227 28.9921C89.5174 34.7202 90.2214 38.5704 92.9427 42.2181C97.0043 47.6489 102.054 51.2155 109.04 53.4311C100.809 54.701 95.9347 59.3213 95.2849 68.1566C92.8344 68.5213 91.0067 67.5216 89.4091 68.4943C87.3783 69.7507 88.1771 75.7085 88.4073 78.7076C88.7322 83.0172 88.7593 86.7188 89.7476 88.5832C91.3181 89.3667 94.4726 88.5562 96.2867 89.083C97.3834 103.782 112.465 104.525 128.495 104.322C128.576 105.659 128.387 106.727 128.495 107.834C128.685 109.739 129.835 111.198 129.998 112.522C130.228 114.279 129.483 117.021 129.321 119.547C128.333 134.773 128.319 148.512 128.319 164.413C128.319 166.818 127.981 170.438 130.336 170.1C131.731 169.911 131.866 167.317 132.516 165.075C133.125 162.994 133.518 160.86 133.856 159.05C136.239 146.323 137.187 132.868 139.895 121.06C142.413 135.732 145.215 151.916 147.612 166.764C148.004 169.182 148.018 172.14 149.954 172.113C152.323 172.073 152.093 167.263 152.134 164.913C152.431 149.863 153.785 136.245 154.313 122.398C157.359 130.031 159.025 137.718 162.03 145.999C163.519 150.106 165.483 154.389 167.067 159.387C167.608 161.089 168.448 163.589 169.246 166.412C169.747 168.223 170.113 172.856 172.604 172.275C174.811 171.762 173.267 165.993 173.105 165.075C171.602 156.847 169.883 149.876 168.068 142.811C166.187 135.435 164.751 127.694 163.371 120.209C162.883 117.575 161.881 114.684 161.854 112.509C161.854 111.712 162.301 110.104 162.193 109.158C161.922 106.916 160.514 105.024 160.69 102.295C164.075 101.971 167.771 102.295 171.426 102.458C175.203 102.633 179.333 103.498 182.325 102.62C183.543 102.268 185.547 100.755 186.522 99.607C188.945 96.77 190.895 93.6358 190.719 88.7318C193.128 89.3938 195.538 90.4205 198.273 91.2446C202.267 92.4604 206.897 92.7847 210.35 94.4193C211.433 94.9327 212.556 96.3242 214.032 95.7568C216.117 94.9597 216.564 86.4216 216.713 84.0439C217.295 75.1681 215.914 67.4676 215.372 59.9427C215.102 56.2411 214.736 50.0266 212.191 49.5673C210.35 49.2296 206.911 51.229 205.476 51.9045C198.706 55.1198 193.291 57.6461 187.699 61.4423C186.562 57.9973 184.667 55.3224 181.661 53.7418C190.353 48.7973 196.757 40.0565 195.24 25.9524C194.997 23.6558 194.225 20.9539 193.237 18.9274C189.635 11.5647 180.835 5.49883 169.422 6.20133C166.2 6.40397 162.206 6.76873 159.187 7.7009C155.274 8.90326 151.592 12.5644 149.29 16.0769C146.962 19.6164 144.403 24.2502 143.929 28.9651C143.712 31.0456 143.956 33.3827 144.092 35.3281C144.85 45.3793 149.114 50.1617 154.99 54.2416C144.863 54.0255 135.197 53.35 125.462 52.7286C132.272 49.5673 136.618 44.9605 139.218 37.5032C144.051 23.6018 136.334 10.4839 126.302 7.37667C124.907 6.94436 124.312 6.75522 123.12 6.20133C122.47 5.90411 121.888 5.53935 121.279 5.36373C113.63 3.16166 105.452 5.76902 101.147 8.55201C97.1261 11.1459 94.8381 12.767 92.5907 16.7524C91.3858 18.9004 89.8017 21.5348 89.3956 23.6153C89.0842 25.2229 89.3685 27.2359 89.3956 28.9651L89.4227 28.9921ZM92.4418 85.5705C92.1575 80.9367 91.4535 76.7352 91.6024 71.6691C92.523 71.3043 94.0935 71.6015 95.2849 71.507C95.7181 76.0327 96.2867 80.4369 96.1243 85.5705H92.4418ZM211.04 53.4311C212.638 64.7927 214.844 79.6263 212.218 91.5958C211.527 91.3932 211.054 90.9744 210.201 90.9339C211.46 84.206 212.434 77.2081 212.719 69.5076C213.057 69.2509 212.096 68.2376 211.717 68.67C210.187 69.9399 210.823 72.885 210.715 74.8709C210.431 80.0181 209.226 85.557 208.535 90.0963C207.52 90.0422 206.829 89.6775 205.855 89.5964C206.193 84.3141 206.857 78.9238 206.857 72.8579C206.857 71.534 207.33 69.6021 206.017 69.0077C204.447 69.5616 205.015 71.7096 205.015 73.1957C205.015 78.6941 204.501 84.2466 204.013 89.0965C203.364 89.3532 202.457 88.5697 201.495 88.5967C201.712 83.6657 202.876 79.0859 203.174 73.6955C203.255 72.1419 203.743 69.413 202.335 69.5076C200.994 69.5886 201.035 77.0865 200.818 78.7076C200.372 82.2066 199.993 84.9626 199.64 88.0833C198.706 87.8942 197.908 87.5835 197.298 87.0836C197.298 82.9361 198.639 78.4374 198.815 74.0333C198.869 72.7904 199.112 70.7504 197.637 70.3451C196.31 71.0477 197.068 73.2767 196.96 74.6953C196.689 78.532 195.647 82.8686 195.457 86.5837C194.496 86.5837 194.035 86.1109 193.115 86.0839C193.765 83.1658 193.778 79.0724 193.616 75.5464C193.562 74.4251 194.103 70.8045 192.776 70.6964C191.071 70.5478 191.883 74.7088 191.937 75.8841C192.099 79.5317 191.937 82.5038 191.26 85.2598C190.434 85.2058 190.488 84.0304 190.421 83.5846C189.595 77.5458 190.448 70.7639 188.742 65.171C195.186 60.2805 202.917 56.6599 211.054 53.4581L211.04 53.4311ZM132.029 148.512C131.609 136.488 132.164 123.992 133.531 113.198C134.777 113.238 135.833 113.468 137.214 113.36C135.955 125.546 133.45 136.488 132.015 148.512H132.029ZM149.981 138.299C149.697 143.865 150.008 149.444 148.803 154.362C146.921 140.609 144.552 127.356 142.088 114.197V113.698C145.242 113.671 147.693 114.346 150.983 114.197C150.874 122.222 150.401 130.031 149.981 138.299ZM132.367 109.51C131.934 108.051 131.812 106.281 131.866 104.322C139.38 102.836 148.979 103.444 157.021 102.485C157.684 104.889 158.023 107.618 158.862 109.847C151.267 111.86 141.289 109.955 132.367 109.51ZM163.736 139.298C160.487 131.166 158.429 121.83 154.679 114.197C156.073 114.022 157.183 113.576 158.537 113.36C160.189 122.087 162.098 130.558 163.736 139.298ZM186.549 93.5953C186.291 92.4469 187.05 90.8663 187.05 89.4073C187.483 90.0827 187.144 92.8252 186.549 93.5953ZM148.302 41.2048C147.585 38.7731 146.948 32.6262 147.3 29.492C147.733 25.5201 150.807 19.4543 152.838 16.7659C156.168 12.3617 161.543 9.74086 169.612 9.74086C169.72 9.74086 169.842 9.74086 169.95 9.74086C176.706 9.241 182.149 11.6998 185.885 14.9286C188.728 17.3873 191.463 21.6429 191.923 26.8035C192.235 30.4106 192.194 35.1795 191.084 38.3543C190.285 40.6644 188.282 43.6231 186.549 45.7171C183.922 48.9188 178.872 52.3773 173.971 53.2554C168.772 54.1741 162.558 54.2011 157.874 51.918C154.367 50.2023 149.534 45.3118 148.316 41.2048H148.302ZM132.367 56.768C136.821 57.1327 141.479 57.1057 146.122 57.4299C156.263 58.173 166.403 57.2678 175.136 56.5923C177.776 56.3897 180.118 56.5653 181.512 57.592C187.077 61.7125 185.994 74.0468 187.05 82.8686C187.05 83.49 185.994 83.0442 185.872 83.5441C186.007 85.7732 185.452 88.2725 185.032 90.7447C184.315 94.9192 184.45 99.1612 180.158 99.4449C181.553 95.2029 182.108 90.0152 183.178 85.3814C183.516 83.9359 184.464 82.1796 183.34 80.8557C181.58 80.6935 182.013 82.5984 181.837 83.5306C180.917 88.3805 179.563 94.7166 178.317 99.4314H175.799C176.855 95.2029 177.803 90.3394 178.48 85.2058C178.656 83.8278 179.603 81.8284 178.141 81.0178C176.733 81.6527 176.814 83.7737 176.638 85.2058C176.043 89.9882 175.109 95.0408 173.958 99.2693C172.78 99.2693 171.9 98.9856 170.6 99.1072C171.886 95.392 172.252 90.2989 172.78 85.5435C172.929 84.206 173.714 82.3012 172.279 81.5311C170.83 82.004 171.088 84.2196 170.939 85.5435C170.384 90.2584 170.167 95.2569 168.759 98.9316C167.5 99.0126 166.701 98.6344 165.401 98.7694C166.119 94.9732 166.782 90.5286 167.08 85.8812C167.161 84.6248 167.771 82.8821 166.403 82.2066C164.765 82.4093 165.442 84.9491 165.401 86.0569C165.212 90.2584 164.102 95.0003 163.56 98.783C162.179 98.783 160.69 98.7154 159.539 98.9451C159.905 94.8111 161.475 89.8936 161.881 85.7191C161.976 84.7599 162.301 82.5579 161.042 82.2066C159.81 82.9226 160.081 84.7194 159.864 86.0569C159.214 90.2314 158.442 94.8246 157.684 98.9451C156.777 99.2153 155.613 99.2153 154.665 99.4449C154.625 98.4857 155.207 97.1888 155.505 95.7703C156.087 92.9873 156.52 89.799 156.682 86.5567C156.75 85.1517 157.197 83.0577 155.843 82.3687C154.557 82.5714 155.058 84.2871 155.004 85.2193C154.706 89.9612 153.745 95.365 152.824 99.607H148.627C149.778 96.2702 150.698 90.9203 150.644 85.3814C150.644 84.3276 151.01 82.8146 149.805 82.5309C148.397 83.0983 149.02 85.3949 148.965 86.7188C148.789 90.6502 148.207 95.1894 147.124 98.1075C147.002 98.783 147.287 99.0667 147.287 99.607H143.604C144.186 97.1078 144.538 94.2842 144.944 91.4067C145.324 88.7183 146.298 85.6246 145.283 83.2063C143.428 82.9902 144.037 84.8815 143.943 85.8812C143.509 90.1908 142.21 95.8108 142.101 99.9448C141.005 100.093 139.854 100.161 138.581 100.107C138.974 96.6349 139.976 92.3794 140.26 88.5562C140.382 86.908 140.639 84.3817 139.583 83.2063C137.607 83.8683 138.541 86.8539 138.405 88.7318C138.135 92.5415 137.241 97.1348 136.564 100.283C134.845 100.242 133.613 100.688 132.042 100.782C131.826 100.242 132.232 99.5935 132.381 98.9451C133.207 95.1759 133.897 91.2851 134.398 87.0566C134.56 85.6246 135.373 83.5306 133.897 82.7065C132.354 83.1793 132.855 85.3138 132.719 86.5567C132.245 90.7717 131.162 95.365 130.363 99.2828C130.323 99.9313 130.363 100.512 130.526 100.958H126.667C127.209 98.175 128.116 92.6631 128.346 88.9074C128.387 88.1779 128.942 83.382 127.507 83.382C126.275 83.382 126.735 85.4489 126.667 87.0701C126.559 89.5964 126.153 95.5677 125.49 98.121C125.192 99.2288 124.109 100.026 124.813 100.796C123.567 100.701 121.929 100.999 120.954 100.634C121.793 96.7565 122.985 92.2983 123.296 87.4078C123.377 86.0298 123.675 83.1253 122.294 83.2198C120.968 83.3144 121.536 86.0299 121.455 87.57C121.238 91.5148 120.02 97.2293 118.937 100.796C117.867 100.863 117.217 100.499 116.08 100.634C116.865 96.8241 117.434 92.0146 118.26 87.7456C118.463 86.6648 119.126 84.0034 117.759 83.8953C116.459 83.7872 116.947 85.2328 116.757 86.4081C116.175 90.0963 114.97 96.3647 114.239 100.472C113.251 100.391 112.398 100.188 111.382 100.134C112.059 96.3918 112.641 91.6499 112.899 87.0836C112.966 85.7597 113.44 83.8953 112.398 83.0712C110.881 83.3279 111.139 85.3273 111.057 86.5837C110.773 90.8123 110.57 96.054 109.555 99.6341C108.58 99.6611 108.201 99.0937 107.375 98.9721C108.39 96.0135 108.905 91.4472 109.054 87.4213C109.108 86.1244 109.446 84.4898 108.377 83.7467C106.549 84.2466 107.28 86.7999 107.199 88.4346C107.05 91.7309 106.454 95.5812 105.859 98.148C104.627 97.7157 103.665 96.9997 103.002 95.973C103.801 94.5409 104.18 92.3118 104.681 90.2854C105.127 88.4886 106.441 85.8677 104.681 84.5978C103.3 84.7464 103.814 86.2595 103.679 87.1106C103.286 89.6234 102.257 92.4604 101.662 94.6355C99.1298 92.0822 99.8745 88.0158 99.6443 83.0847C99.3465 76.2218 97.1126 66.1436 100.822 61.1586C103.462 57.6055 110.137 56.5113 114.753 55.471C115.742 55.2414 115.769 56.4978 116.933 56.6464C117.502 56.7139 118.016 56.2411 118.612 56.1465C122.47 55.5251 127.534 56.4302 132.367 56.822V56.768ZM92.7802 24.4664C93.1052 22.3724 95.0683 18.8464 96.1378 17.2657C98.2634 14.0775 102.65 11.0783 106.535 9.40311C107.943 8.79518 109.676 8.56552 111.396 8.4034C114.808 8.07917 119.032 8.34936 121.631 9.241C124.176 10.1191 127.074 10.8892 129.186 12.2536C131.406 13.6857 133.789 16.928 134.885 18.9544C137.634 23.9935 138.013 31.2617 135.549 37.206C132.963 43.4609 129.903 47.3382 123.635 49.7564C115.769 52.7961 105.899 49.824 100.484 45.4063C98.9674 44.1634 96.2597 41.2183 95.1224 39.381C92.8886 35.801 91.9138 29.9648 92.7802 24.4799V24.4664Z" fill="#0F3187"/>
<path d="M85.9043 38.6922C86.4458 36.7198 85.3763 35.0311 85.2273 33.0047C84.6722 25.1691 86.2427 16.5499 89.7628 11.5784C90.2772 10.8489 91.1979 10.6327 91.2656 9.56544C89.0452 7.44442 86.3781 13.6724 85.2273 16.9282C83.6027 21.5755 82.9799 27.209 83.3861 32.8291C83.535 34.8825 83.7652 38.5031 85.9043 38.6922Z" fill="#0F3187"/>
<path d="M95.8013 36.692C97.4124 36.5434 96.5053 34.3278 96.4782 33.5172C96.3022 28.8969 98.333 23.3039 101.176 19.6158C102.923 17.3462 105.901 15.4548 108.555 13.9282C109.557 13.3473 112.413 11.8883 110.057 11.0777C106.957 12.7394 102.354 15.2117 99.8223 18.4405C98.7933 19.7509 98.509 20.8992 97.6426 22.2907C95.9096 25.0872 95.3275 27.4379 94.7994 31.8285C94.6234 33.2605 94.1496 36.8271 95.8013 36.6785V36.692Z" fill="#0F3187"/>
<path d="M129.01 14.5906C129.863 12.7128 126.208 10.3351 125.49 12.5777C126.451 13.4018 127.304 14.3339 128.672 14.7527C128.712 14.6176 128.807 14.5636 129.01 14.5906Z" fill="#0F3187"/>
<path d="M200.305 36.6929C200.129 37.6251 199.236 38.4491 200.143 39.3678C202.309 39.4489 202.214 36.2201 202.323 34.3422C202.444 32.0726 202.485 29.141 202.323 26.9795C201.93 21.8323 200.048 13.4833 196.122 12.0783C194.687 13.2807 197.097 14.5506 197.801 15.9286C200.021 20.2652 201.47 30.6 200.319 36.6794L200.305 36.6929Z" fill="#0F3187"/>
<path d="M124.478 15.0896C126.048 15.8461 126.928 17.5213 127.998 18.7777C128.837 19.7504 129.528 21.3716 131.017 21.4526C132.046 20.1017 130.164 18.494 129 17.1025C127.849 15.7245 126.617 14.1844 125.48 13.59C124.18 12.901 120.741 11.9824 120.619 13.7521C121.54 14.9815 123.327 14.5357 124.478 15.0896Z" fill="#0F3187"/>
<path d="M180.85 16.7653C182.705 18.9134 184.438 24.6145 185.71 28.4782C186.144 29.7887 186.441 32.4501 187.728 32.1528C189.041 31.8556 187.673 28.5187 187.227 27.1273C186.062 23.5337 185.182 20.1293 183.368 17.2517C182.664 16.1439 180.566 13.3069 179.347 14.239C178.115 15.1847 180.552 16.3871 180.864 16.7518L180.85 16.7653Z" fill="#0F3187"/>
<path d="M150.986 32.666C151.243 27.0325 152.949 22.3041 155.346 18.9402C156.117 17.8594 157.634 16.9543 157.525 15.4277C157.485 15.1305 157.241 15.0494 156.862 15.0899C152.949 17.265 149.849 24.5332 149.307 31.4906C149.145 33.5982 148.387 37.1782 150.648 37.516C151.501 36.4352 150.905 34.3277 150.986 32.666Z" fill="#0F3187"/>
<path d="M187.552 24.6282C188.053 26.5601 187.904 30.4914 189.068 30.4914C189.935 30.4914 190.097 28.8567 189.908 27.141C189.704 25.3442 188.432 20.2376 187.552 18.1031C187.173 17.1844 185.765 14.7527 184.871 15.4281C183.653 16.3468 185.575 18.1571 185.873 18.9407C186.36 20.1971 187.024 22.6423 187.552 24.6282Z" fill="#0F3187"/>
<path d="M81.3684 24.4661C82.7494 22.6018 81.558 18.1706 82.7088 16.0901C79.446 14.2393 80.1093 22.0884 80.529 24.4661H81.3684Z" fill="#0F3187"/>
<path d="M182.355 28.3169C182.612 29.1951 182.409 30.9243 184.033 30.492C184.791 28.8033 183.587 26.4931 182.693 24.4667C181.326 21.3595 180.486 17.7929 177.318 17.2661C176.912 17.4822 176.641 17.8064 176.655 18.4414C179.43 20.2112 181.38 24.953 182.355 28.3169Z" fill="#0F3187"/>
<path d="M122.973 21.2919C123.799 22.1025 123.366 22.7104 124.151 22.6294C124.463 22.5888 124.896 22.2646 124.991 21.7918C125.275 20.2922 121.687 17.8875 121.132 18.1171C118.952 18.9817 122.405 20.7245 122.973 21.2919Z" fill="#0F3187"/>
<path d="M102.502 28.3158C103.084 25.2491 104.451 23.3308 106.022 21.4529C106.753 20.5883 107.998 19.7372 107.863 18.4403C107.321 17.6702 106.604 18.2376 106.36 18.4403C103.883 20.5343 101.283 24.371 100.66 28.8157C100.498 29.991 99.7127 32.3012 101.662 32.5038C102.502 31.2069 102.258 29.5992 102.502 28.3158Z" fill="#0F3187"/>
<path d="M157.36 21.6161C157.793 20.765 158.673 20.3597 158.7 19.4411C158.281 18.5764 157.455 18.7386 156.859 19.1033C155.532 19.9004 154.205 24.4126 153.84 27.3037C153.583 29.3706 153.055 32.3428 154.679 32.9912C156.114 32.3158 155.424 29.83 155.519 28.4655C155.695 26.1148 156.453 23.3994 157.36 21.6026V21.6161Z" fill="#0F3187"/>
<path d="M204.487 33.3415C206.112 33.0713 205.841 29.7344 205.665 26.9784C205.489 24.236 205.029 19.3995 203.323 21.2909C203.012 22.7634 203.716 24.6007 203.824 26.6407C203.959 28.9779 203.215 31.8689 204.501 33.3415H204.487Z" fill="#0F3187"/>
<path d="M122.297 24.3036C124.355 22.4392 119.373 21.0883 118.939 23.1282C119.237 24.3306 121.146 23.9388 122.297 24.3036Z" fill="#0F3187"/>
<path d="M178.33 28.4789C179.345 26.2904 177.206 24.6557 177.328 22.278C177.111 22.0483 176.597 22.1159 176.15 22.1159C175.297 23.5344 176.083 25.8851 176.827 26.8037C176.732 27.9656 177.071 28.6816 178.33 28.4789Z" fill="#0F3187"/>
<path d="M159.377 27.1415C160.339 26.3174 160.284 24.4801 160.718 23.1291C158.687 21.3864 157.008 27.0739 159.377 27.1415Z" fill="#0F3187"/>
<path d="M168.095 38.3539C169.056 38.5025 172.333 38.0161 173.131 37.6919C178.249 35.5709 177.166 24.6551 171.791 23.1285C170.627 22.8043 169.029 22.8718 167.594 23.1285C164.859 23.6283 162.774 25.8845 162.395 27.9784C162.003 30.0724 162.626 33.639 163.736 35.3412C164.264 36.1518 167.256 38.2188 168.095 38.3539ZM170.776 26.3033C173.172 27.4246 173.903 32.5988 171.778 34.5036C169.598 34.6522 168.109 34.5847 166.741 33.666C165.022 30.4507 165.374 25.1549 170.762 26.3033H170.776Z" fill="#0F3187"/>
<path d="M107.199 32.842C107.686 34.4361 109.636 36.1924 111.22 37.03C117.718 40.4479 123.459 35.3007 121.956 28.9917C121.171 25.6954 116.486 21.9667 111.558 23.4663C109.027 24.2363 105.94 28.681 107.199 32.842ZM112.899 26.8167C115.417 26.0331 118.192 27.8704 118.598 30.005C118.923 31.6802 118.097 33.8552 117.082 34.3551C114.889 35.4493 110.787 33.504 110.38 31.5045C109.934 29.3835 111.03 27.3976 112.899 26.8167Z" fill="#0F3187"/>
<path d="M208.523 28.3162C210.676 28.1271 209.498 24.2228 208.862 23.2906C206.357 23.3987 208.375 26.8167 208.185 28.1406C208.32 28.1811 208.523 28.1406 208.523 28.3027V28.3162Z" fill="#0F3187"/>
<path d="M105.196 27.4793C106.997 27.4928 107.254 25.9662 107.714 24.6287C106.293 23.1021 104.289 26.1418 105.196 27.4793Z" fill="#0F3187"/>
<path d="M129.349 26.1415C129.2 25.6957 128.767 26.3172 128.51 26.3037C129.687 33.0585 127.426 39.1513 124.99 43.0421C124.489 43.8392 123.27 44.6903 123.812 45.8927C126.14 46.1358 127.102 42.88 128.171 40.7049C129.335 38.3543 130.337 35.8415 130.513 33.1801C130.662 30.9915 131.068 27.2764 129.335 26.1415H129.349Z" fill="#0F3187"/>
<path d="M129.172 41.0422C130.648 42.204 132.245 39.8803 132.868 38.705C133.599 37.3135 134.032 34.7737 134.547 32.6797C135.102 30.3966 135.752 27.6406 134.547 26.1545C134.019 26.0735 133.897 26.3977 133.545 26.4923C133.003 30.1669 132.665 35.3681 131.203 38.043C130.58 39.1778 129.118 39.6642 129.185 41.0557L129.172 41.0422Z" fill="#0F3187"/>
<path d="M169.776 32.0046C171.564 31.6939 171.496 27.7626 168.775 28.8163C166.757 29.5999 168.016 32.3018 169.776 32.0046Z" fill="#0F3187"/>
<path d="M115.255 29.6541C114.064 28.0735 111.749 28.9381 111.897 30.6539C112.087 32.6803 115.891 32.8694 115.255 29.6541Z" fill="#0F3187"/>
<path d="M125.654 29.1534C125.004 29.0183 124.788 28.9778 124.314 29.3155C123.948 30.4368 124.26 31.3825 124.151 32.3282C123.867 34.6248 122.161 36.0298 122.31 38.0157C125.194 38.2724 126.52 32.1255 125.668 29.1399L125.654 29.1534Z" fill="#0F3187"/>
<path d="M111.737 38.5295C112.143 36.9624 110.22 36.4625 109.395 37.192C109.151 38.6646 110.87 39.1779 111.737 38.5295Z" fill="#0F3187"/>
<path d="M106.699 39.7041C108.771 40.0284 110.111 41.7981 112.061 41.7171C112.385 41.3388 112.209 40.4607 112.061 40.0419C110.707 39.6231 106.794 36.7455 106.699 39.7041Z" fill="#0F3187"/>
<path d="M174.135 40.0299C172.916 38.8005 168.909 40.0705 167.095 39.0302C165.321 41.9078 173.742 42.4211 174.135 40.0299Z" fill="#0F3187"/>
<path d="M171.616 44.2181C172.889 44.029 174.527 43.7048 175.475 43.3805C176.274 43.1103 181.229 40.7056 181.012 39.7059C180.944 39.3682 180.254 38.7467 179.672 39.0304C176.869 40.4354 174.135 42.2592 170.276 42.5429C168.665 42.6645 166.742 41.962 165.578 43.2184C166.174 45.0017 169.477 44.5288 171.616 44.2181Z" fill="#0F3187"/>
<path d="M104.52 40.3666C104.155 40.6098 103.735 40.8124 103.844 41.542C104.832 42.0688 105.752 43.6224 107.201 44.3925C108.69 45.1761 112.698 46.1488 113.402 44.5546C113.266 44.5141 113.212 44.406 113.239 44.2169C111.601 42.974 109.922 43.717 108.203 42.8794C106.849 42.2174 106.05 40.3396 104.507 40.3666H104.52Z" fill="#0F3187"/>
<path d="M181.852 41.7044C180.322 42.8662 176.179 46.122 172.118 46.5543C170.574 46.7164 164.59 46.122 164.739 47.7297C164.861 49.0536 169.951 48.5402 171.779 48.4051C174.717 48.162 177.235 46.9326 179.334 45.7302C180.972 44.7981 183.016 43.6362 183.355 41.88C182.894 41.0964 182.244 41.4071 181.852 41.7179V41.7044Z" fill="#0F3187"/>
<path d="M111.736 47.2304C109.692 47.0683 107.647 46.5279 106.199 45.7173C104.466 44.7581 103.369 42.9613 101.839 42.8668C101.46 43.0424 101.23 43.3801 101.176 43.8665C103.559 46.6765 107.322 48.73 112.25 49.0542C113.496 49.1352 115.865 49.6486 116.447 48.0545C115.324 46.5684 113.171 47.3249 111.749 47.2169L111.736 47.2304Z" fill="#0F3187"/>
<path d="M175.813 48.7435C173.999 48.6895 172.022 50.1891 170.276 50.5808C169.003 50.8645 168.191 50.4863 168.096 51.4184C167.92 53.1612 171.684 52.1209 172.794 51.7562C174.337 51.2428 177.099 50.4322 176.991 49.4055C176.896 48.5409 176.381 48.757 175.813 48.7435Z" fill="#0F3187"/>
<path d="M95.9627 57.4426C96.6261 56.7131 97.1135 55.8079 97.6415 54.9298C96.7209 53.0384 94.5276 55.1054 94.7984 56.9427C95.2045 57.1048 95.2451 57.6182 95.9762 57.4426H95.9627Z" fill="#0F3187"/>
<path d="M117.272 58.6187C118.328 56.3356 114.158 56.6733 112.75 56.9435C108.025 57.8487 104.587 60.6181 102.678 63.9685C102.312 64.617 101.337 67.3324 102.678 67.6567C103.829 67.9269 103.896 66.738 103.856 65.4816C105.44 63.4822 106.888 60.9964 109.555 59.794C111.749 58.8078 114.605 58.6322 117.272 58.6187Z" fill="#0F3187"/>
<path d="M207.346 58.9425C207.63 58.6723 207.766 58.24 207.685 57.605C207.197 56.9701 205.87 57.2808 206.006 58.2805C206.249 58.7128 206.547 59.0776 207.346 58.9425Z" fill="#0F3187"/>
<path d="M121.294 59.4559C122.363 59.6315 122.81 59.1857 122.634 58.1184C121.741 57.1862 120.36 58.5642 121.294 59.4559Z" fill="#0F3187"/>
<path d="M181.351 61.456C181.581 59.2674 176.003 56.9437 175.312 59.443C176.111 60.3752 177.871 60.3482 179.171 60.7805C179.428 61.7397 180.714 62.7259 181.351 61.456Z" fill="#0F3187"/>
<path d="M136.226 61.1182C139.245 61.3479 141.831 61.4019 144.62 61.6181C147.314 61.8207 151.268 62.3071 154.179 61.9558C155.383 61.8072 156.697 61.1047 158.199 60.9561C161.029 60.6724 165.849 61.8613 166.255 59.2809C165.429 58.3758 164.319 59.0377 163.398 59.1188C161.435 59.2809 159.323 59.0242 157.184 59.2809C156.128 59.4025 155.113 59.9699 154.003 60.1185C151.904 60.4022 149.413 60.4562 147.287 60.2806C142.278 59.8753 133.492 58.8351 128.997 59.1053C127.887 61.3614 134.006 60.9426 136.213 61.1182H136.226Z" fill="#0F3187"/>
<path d="M173.133 59.6179C172.943 58.9289 171.86 58.7668 171.116 59.118C171.075 59.2531 171.116 59.4422 170.953 59.4557C170.831 59.9691 171.129 60.0637 171.116 60.4555C171.901 60.8878 173.228 60.6041 173.133 59.6179Z" fill="#0F3187"/>
<path d="M197.112 63.9682C199.115 62.8469 201.81 61.9013 202.649 59.7803C202.432 59.375 202.108 59.0913 201.471 59.1048C198.994 60.8745 195.771 62.9956 192.915 64.2925C192.075 64.6707 190.072 64.6843 190.397 66.3054C192.847 67.0079 195.135 65.0625 197.112 63.9682Z" fill="#0F3187"/>
<path d="M219.26 89.4075C219.26 89.4075 218.705 92.204 220.1 92.0824C221.048 92.0014 221.494 87.1514 221.603 85.7194C222.009 80.5587 221.684 71.183 220.425 66.306C219.964 64.4957 219.856 61.0778 218.245 61.456C218.001 61.5506 217.839 61.7127 217.744 61.9559C218.204 65.2387 219.545 68.8458 219.748 73.0068C220.073 79.2618 219.64 84.571 219.247 89.4075H219.26Z" fill="#0F3187"/>
<path d="M150.308 63.8065C146.043 64.4955 147.817 69.7912 149.631 72.1825C152.136 72.4662 155.805 72.3446 159.866 72.3446C162.858 72.3446 168.125 73.1281 169.424 71.507C170.521 70.1425 170.237 66.0626 169.587 64.1442C165.2 64.1577 155.236 63.0094 150.294 63.8065H150.308ZM166.581 68.8321C161.938 69.2238 156.576 68.8861 151.648 68.9942C151.445 68.4673 151.256 67.9269 151.31 67.1434H166.744C166.69 67.7108 166.473 68.1025 166.581 68.8186V68.8321Z" fill="#0F3187"/>
<path d="M97.8039 106.983C99.239 107.929 103.382 109.766 104.682 107.645C103.991 106.375 102.583 106.848 101.662 106.645C98.2643 105.889 95.8002 102.741 94.7848 99.6066C94.3787 98.3637 94.3245 96.1482 92.7676 97.4316C93.0384 101.39 95.1098 105.213 97.8039 106.969V106.983Z" fill="#0F3187"/>
<path d="M186.713 104.645C188.487 103.875 190.287 102.038 190.409 100.12C188.446 99.336 187.823 102.132 185.887 102.97C183.978 103.794 181.068 102.848 180.188 104.645C181.88 105.875 184.994 105.388 186.727 104.645H186.713Z" fill="#0F3187"/>
<path d="M94.283 107.997C94.5267 107.794 94.7568 107.578 94.9464 107.321C94.4996 106.619 92.9156 103.673 92.0897 103.646C89.6934 103.552 92.4688 108.145 94.2694 107.997H94.283Z" fill="#0F3187"/>
<path d="M148.803 106.322C144.011 106.687 139.678 105.295 136.226 105.822C136.037 106.011 136.037 106.416 136.064 106.822C139.773 108.2 146.989 108.186 151.66 107.659C153.799 107.416 157.089 108.267 157.197 105.984C155.018 105.16 152.093 106.065 148.817 106.322H148.803Z" fill="#0F3187"/>
<path d="M123.135 158.874C124.462 159.158 124.706 155.645 124.814 154.186C125.126 149.904 124.76 143.662 124.313 140.298C124.178 139.285 124.367 137.704 123.311 137.623H123.149C122.905 137.718 122.743 137.88 122.648 138.123C122.052 139.38 122.837 141.433 122.986 143.486C123.257 147.134 123.203 151.93 122.986 154.699C122.919 155.591 121.741 158.59 123.149 158.887L123.135 158.874Z" fill="#0F3187"/>
<path d="M173.459 145.324C173.08 143.851 173.215 141.392 171.78 141.636C171.536 141.784 171.252 141.892 171.279 142.311C172.836 151.349 176.762 160.144 181.176 166.75C181.785 167.655 182.313 169.263 183.694 169.263C184.804 168.115 183.383 166.872 182.855 166.088C180.756 162.913 179.294 160.022 177.656 156.213C176.275 153.011 174.474 149.282 173.459 145.337V145.324Z" fill="#0F3187"/>
<path d="M120.291 152.011C122.064 151.754 121.035 148.269 120.792 146.985C118.314 146.567 119.221 151.187 120.115 151.835C120.209 151.835 120.318 151.862 120.277 151.997L120.291 152.011Z" fill="#0F3187"/>
<path d="M110.218 65.3053C109.636 66.2104 108.986 66.2104 108.715 67.1426C108.228 68.7772 109.216 72.4789 110.394 73.3435C112.438 74.8296 121.076 73.3705 123.134 73.1814C128.238 72.7085 133.599 73.8839 134.371 71.0063C133.951 68.9393 134.696 66.2779 132.854 65.3188C131.352 64.5352 127.561 65.2377 124.637 65.1566C119.316 65.008 114.645 64.9135 110.204 65.3188L110.218 65.3053ZM126.992 68.8178C122.701 69.831 118.111 70.5605 112.736 70.493C112.601 70.0606 112.1 69.1285 112.398 68.8178C116.974 68.453 122.362 68.6692 126.992 68.8178Z" fill="#0F3187"/>
<path d="M52.2324 124.276C54.8183 126.113 57.2011 129.099 59.8411 130.639C61.019 126.802 56.0909 124.817 53.654 121.885C52.2189 122.493 52.774 123.493 52.246 124.276H52.2324Z" fill="#E7F2FC"/>
<path d="M82.1676 96.7837C79.5276 94.406 76.2242 91.2042 73.5571 88.6644C72.7583 87.9078 70.9441 86.8135 72.0814 85.6112C73.3405 85.4626 74.2069 86.7865 75.0869 87.6241C77.9436 90.3666 80.9492 93.4873 83.8329 95.6489C85.1732 94.487 87.0009 94.2168 87.9486 93.055C84.0766 89.9478 80.191 86.8406 76.4408 83.0579C73.2457 84.6385 70.1589 85.6112 66.8555 87.7592C70.5515 92.4606 74.5725 95.4462 78.431 99.3235C79.6765 98.4724 80.9221 97.6213 82.1676 96.7702V96.7837Z" fill="#E7F2FC"/>
<path d="M55.3613 121.128C57.0401 122.479 58.6241 124.33 60.3435 125.438C60.6549 123.425 57.5546 122.331 56.3361 120.466C56.0112 120.683 55.6863 120.912 55.3749 121.128H55.3613Z" fill="#E7F2FC"/>
<path d="M52.2184 130.774C55.075 134.152 57.9723 137.34 61.0185 139.772C60.5988 139.137 60.7071 138.583 60.3957 137.961C58.8117 136.881 57.6744 135.8 55.8332 133.976C54.9667 133.125 51.3384 130.315 52.3808 129.234C53.3285 128.261 55.3593 130.95 56.131 131.747C57.5932 133.26 58.4461 134.408 59.7458 134.962C60.1114 132.314 57.5661 131.463 55.4541 129.572C53.9378 128.207 52.7058 126.87 51.4602 125.803C50.7021 127.302 50.9457 128.991 50.9051 130.639C51.4196 130.274 51.8393 130.41 52.2048 130.761L52.2184 130.774Z" fill="#E7F2FC"/>
<path d="M101.066 130.327C101.865 131.948 102.623 133.88 103.855 134.704C105.575 135.853 106.712 134.151 108.77 132.975C109.325 131.3 109.46 129.098 107.971 127.639C105.859 125.599 101.486 127.301 101.066 130.314V130.327Z" fill="#E7F2FC"/>
<path d="M93.1762 90.8937C89.5749 87.3947 85.9465 84.0578 82.2234 81.1262C80.8966 81.3154 79.5157 81.8422 78.1348 82.2881C81.9933 85.8951 85.9059 89.2725 89.8863 92.3257C91.0371 91.5151 92.1066 91.2044 93.1762 90.8937Z" fill="#E7F2FC"/>
<path d="M56.294 137.92C54.3715 135.935 52.6927 133.908 50.8379 132.314C51.6773 134.732 54.0059 136.84 55.9826 138.947C58.0134 141.109 60.1931 143.189 62.0479 145.148C62.1156 145.229 62.1832 145.297 62.278 145.202C61.8448 142.203 58.6903 140.42 56.294 137.934V137.92Z" fill="#E7F2FC"/>
<path d="M57.8633 119.425C58.8922 120.384 59.8264 121.844 60.9636 122.181C60.9365 121.695 61.2615 121.276 61.4646 120.83C60.5575 120.547 59.8264 119.277 58.9734 118.682C58.6079 118.939 58.2288 119.182 57.8633 119.439V119.425Z" fill="#E7F2FC"/>
<path d="M9.87008 110.172C11.1562 113.819 11.5083 119.466 15.3532 122.047C13.336 118.102 11.1427 114.103 10.195 110.361C10.0732 110.158 9.80239 109.847 9.87008 110.185V110.172Z" fill="#E7F2FC"/>
<path d="M9.47852 103.943C11.929 110.144 14.1223 116.305 17.6423 122.708C17.886 123.114 17.4528 123.397 17.5611 123.776C18.6442 124.181 19.7002 124.816 20.878 124.762C19.2534 119.115 15.3949 113.049 15.0564 107.645C13.0798 107.037 11.2792 105.497 9.47852 103.943Z" fill="#E7F2FC"/>
<path d="M91.6973 117.237C94.0395 115.629 94.5946 111.455 92.6857 109.469C90.7361 107.442 85.605 109.077 83.9668 112.171C84.2376 114.022 85.8487 117.115 87.6628 118.169C89.0709 117.561 90.4112 118.142 91.6973 117.237Z" fill="#E5228D"/>
<path d="M60.7227 117.67C61.2236 118.21 61.6433 119.183 62.2796 119.048C62.2796 118.007 63.3627 117.17 63.3221 116.116C62.4556 116.643 61.535 117.494 60.7362 117.67H60.7227Z" fill="#E7F2FC"/>
<path d="M48.6734 113.13C50.0949 111.644 53.5067 117.859 54.7251 117.521C55.6999 116.859 56.6612 116.197 57.6359 115.535C55.7135 114.049 53.4931 111.09 51.5706 109.334C50.7042 108.537 48.8629 107.726 50.1897 106.43C51.9633 106.767 53.3577 108.672 54.7928 110.185C56.2821 111.766 57.8796 113.279 59.2606 114.643C60.479 114.13 61.8058 113.076 63.092 112.225C61.684 110.996 59.951 109.645 58.2046 108.051C56.7965 106.767 53.8993 105.025 54.7928 103.079C56.9184 103.403 58.0421 105.808 59.6803 107.254C61.3049 108.686 63.3222 109.672 64.6083 111.185C65.881 110.347 66.7474 109.429 67.1807 108.415C65.5831 107.402 63.8366 105.997 62.0631 104.2C61.1018 103.228 57.0132 99.3504 58.5566 98.4858C59.396 97.9995 60.3301 99.4991 60.9935 100.269C63.5388 103.201 66.233 105.268 68.0471 107.618C69.577 106.497 71.1745 105.984 72.1087 104.646C69.1573 101.566 65.7591 99.1748 62.6588 95.8785C61.8329 95.0003 59.6396 93.1495 60.804 92.2714C61.684 91.6094 63.1868 93.6899 63.9991 94.5545C67.2213 97.9995 70.7142 100.377 73.1647 103.498C74.7217 102.512 75.2632 101.323 76.9014 100.35C73.1376 96.3918 68.5751 93.3251 65.3665 88.5427C60.2489 90.9069 55.2531 93.4737 50.2032 97.2564C46.5343 100.012 43.9619 101.904 40.9699 103.957C38.8308 105.43 36.9489 107.146 34.8775 108.105C31.9667 109.469 28.0947 109.969 25.0756 110.118C22.1512 110.266 19.4029 109.05 16.6816 108.537C18.3604 114.076 21.2171 119.831 22.9229 125.37C31.7637 128.842 42.0395 124.681 52.7079 118.44C51.9497 117.143 47.4007 114.387 48.6463 113.103L48.6734 113.13ZM25.387 115.008C26.2941 118.075 27.323 121.574 28.6092 124.762C28.6904 124.978 28.5144 125.154 28.6092 125.37C28.2436 125.627 27.851 125.964 27.5531 125.897C25.6577 122.911 24.6017 118.899 23.5322 115.265C23.2749 114.414 22.5032 112.752 23.7353 112.293C25.0756 112.32 25.1162 114.089 25.387 115.008Z" fill="#E7F2FC"/>
<path d="M51.7324 137.192C54.7109 143.271 59.9368 148.242 64.2286 151.579C63.1861 147.77 60.0316 145.784 57.2968 142.933C55.3743 140.934 53.7903 138.718 51.746 137.192H51.7324Z" fill="#E7F2FC"/>
<path d="M129.66 133.53C128.996 133.692 128.401 134.354 127.629 134.718C126.871 135.07 126.289 135.002 125.679 135.435C119.871 139.555 128.062 147.593 133.017 146.445C136.063 144.702 138.108 142.446 137.404 139.812C136.497 136.407 132.097 132.935 129.66 133.543V133.53Z" fill="#E5228D"/>
<path d="M87.1084 143.473C88.0425 142.365 88.5841 139.555 88.1644 138.488C86.8512 135.07 82.0991 132.179 80.4203 132.814C79.4591 133.192 77.9021 135.151 77.3471 136.326C76.819 137.448 76.5212 140.15 76.6972 141.014C77.3064 143.959 79.7028 144.973 81.3003 145.378C83.1957 145.851 85.0776 145.837 87.0949 143.446L87.1084 143.473Z" fill="#E5228D"/>
<path d="M113.751 104.038C112.194 105.618 113.128 109.887 115.281 111.914C117.054 113.589 119.992 114.008 121.752 112.765C125.028 110.455 124.514 104.997 120.804 103.065C118.99 102.133 115.294 102.471 113.737 104.024L113.751 104.038Z" fill="#E5228D"/>
<path d="M99.2546 160.333C100.798 162.994 104.832 163.616 107.093 162.886C108.028 162.589 108.623 162.008 109.449 161.279C112.279 158.793 111.994 155.51 108.42 152.66C104.237 149.309 96.3438 155.348 99.2546 160.333Z" fill="#E5228D"/>
<path d="M121.173 94.1087C115.865 91.5149 109.814 91.5013 104.033 92.2174C103.153 92.3254 102.3 92.2173 101.474 92.3389C92.8091 93.5143 84.0903 98.4858 75.4391 106.227C75.3985 106.321 76.8471 106.484 76.6576 107.416C76.1702 108.429 75.1548 108.902 74.5456 109.672C69.956 115.44 68.4126 120.777 67.8981 126.964C67.8033 128.072 68.3584 129.693 67.1941 130.679C65.407 130.031 66.0975 127.721 66.2193 126.275C66.5984 121.574 67.7086 115.94 70.484 112.022C71.4182 110.699 72.7314 109.834 73.2323 108.321C70.3215 110.293 68.9812 113.9 67.6409 116.183C64.9332 120.817 63.7418 124.019 63.3221 128.856C63.1596 130.652 62.767 132.692 62.9159 134.192C63.1596 136.624 64.7165 139.974 65.3393 143.081C65.9485 146.107 66.7609 149.431 68.1012 152.146C69.8747 155.753 72.2034 160.117 74.8299 163.17C75.7505 164.237 77.1585 165.034 78.1198 166.196C80.8952 169.547 83.4404 170.29 86.8792 171.573C89.5463 172.573 92.1051 174.018 94.5963 174.829C97.7643 175.856 101.961 175.883 106.185 175.437C110.22 175.018 114.742 175.086 118.438 173.167C120.902 171.897 123.271 169.844 126.155 168.115C128.267 166.845 131.056 165.994 132.531 164.372C133.344 163.481 132.911 162.805 133.574 162.035C134.278 161.238 135.483 160.9 136.349 160.144C138.082 158.617 139.775 156.24 141.074 154.294C142.482 152.173 143.268 150.106 143.836 147.945C145 143.527 146.909 139.028 147.37 135.002C147.532 133.611 147.451 131.72 147.37 129.936C147.275 128.153 147.343 125.991 147.031 124.695C145.786 119.588 142.821 113.4 138.475 108.024C133.398 101.755 127.13 96.9592 121.2 94.0547L121.173 94.1087ZM92.5384 96.1892C95.3544 94.8923 98.4006 94.1627 101.718 93.5818C104.804 93.0414 108.054 92.1498 110.585 92.0012C113.158 91.8391 116.664 92.7037 118.289 94.6491C117.653 96.4324 116.529 94.8247 115.31 94.4464C111.14 93.163 106.74 94.595 101.731 95.3921C98.5224 95.9055 95.4492 96.635 92.7821 98.04C91.6854 98.6209 90.6971 100.472 88.9236 99.2424C89.1943 97.5266 91.2116 96.7836 92.5248 96.1892H92.5384ZM115.798 125.14C116.407 126.437 116.407 128.923 116.42 130.193C116.434 133.003 116.19 135.165 113.428 137.704C112.941 138.15 111.086 139.785 110.057 140.204C109.218 140.555 107.783 140.339 106.754 140.433C102.557 140.812 97.4123 138.691 95.7335 132.341C95.0159 129.666 95.9366 125.748 97.5883 123.776C99.2535 121.803 102.246 119.912 104.425 119.52C108.555 118.791 113.74 120.75 115.798 125.154V125.14ZM83.7654 101.769C84.0497 101.242 84.1851 101.147 84.7808 100.877C86.0398 101.215 85.7149 102.876 84.4288 102.741C83.9684 102.242 84.0632 102.377 83.7654 101.769ZM85.7149 106.105C89.6547 104.214 95.7876 104.849 97.2227 111.036C97.7778 113.468 96.8707 116.913 94.339 119.291C92.1999 121.29 91.1845 121.371 89.1131 121.439C87.2854 121.493 85.6743 121.412 84.1174 119.777C79.1893 114.616 79.6632 109.037 85.7285 106.105H85.7149ZM73.2594 140.744C73.0157 137.975 73.8551 135.448 75.5474 133.098C76.4274 131.882 77.5241 130.112 79.7444 129.423C83.3727 128.288 89.939 132.8 91.4688 137.65C92.2135 140.014 91.2522 144.121 89.4245 145.932C86.4054 148.904 83.4269 149.498 80.5702 148.728C77.7001 147.958 73.7062 145.689 73.2729 140.73L73.2594 140.744ZM67.668 135.84C68.5073 136.813 68.1012 137.731 67.1399 138.029C65.8267 137.745 66.2193 135.556 67.668 135.84ZM98.712 174.072C95.5981 173.829 91.7938 171.965 88.206 170.29C86.446 169.466 84.9026 168.533 83.1426 167.047C80.0693 164.453 77.7678 163.373 74.7757 159.563C72.6502 156.875 68.9 151.2 67.7086 147.756C66.8827 145.378 67.6544 146.81 67.0181 144.378C66.6796 143.081 65.9892 141.595 66.8827 141.217C68.3584 140.609 68.8187 144.851 69.1166 145.972C70.3892 150.714 75.3443 158.212 79.257 161.968C80.5161 163.184 82.398 164.318 83.9955 165.629C87.3937 168.398 90.291 169.128 93.9193 170.627C96.072 171.519 98.0757 172.451 100.12 172.276C101.298 172.167 102.99 170.722 104.209 172.316C103.478 173.802 100.134 174.167 98.6849 174.059L98.712 174.072ZM116.718 170.114C116.339 166.466 120.279 170.992 116.718 170.114V170.114ZM114.39 160.765C113.875 161.846 112.955 162.724 111.912 163.67C108.094 167.128 102.34 166.993 99.3212 165.156C91.6178 160.468 95.6793 150.822 103.18 148.539C105.441 147.85 108.433 148.39 110.315 149.755C114.227 152.619 115.933 157.523 114.39 160.752V160.765ZM140.289 151.417C139.531 152.66 138.895 154.146 138.096 155.334C135.943 158.604 132.098 161.846 129.025 164.345C128.199 165.021 127.265 165.642 126.398 166.142C124.72 167.088 121.294 168.885 120.821 166.304C122.025 165.453 123.393 165.737 124.814 165.007C125.898 164.44 126.954 163.656 127.861 162.927C130.853 160.536 133.791 158.023 135.821 155.267C137.852 152.511 138.746 149.363 141.034 147.458C142.591 148.485 140.993 150.268 140.289 151.417ZM140.844 139.474C141.196 141.474 140.316 144.891 138.096 147.026C136.959 148.12 135.402 149.336 134.075 149.768C130.135 151.025 122.391 147.58 120.252 141.149C119.697 139.447 120.279 137.002 120.888 135.84C122.499 132.827 126.886 130.206 129.946 130.085C134.576 129.882 140.127 135.462 140.844 139.474ZM143.85 137.029C144.31 136.57 144.445 136.475 145.055 136.407C146.937 137.664 143.714 139.231 143.85 137.029ZM124.476 114.954C120.902 118.142 116.542 117.251 113.307 114.657C108.731 110.996 107.837 103.079 113.374 100.215C116.624 98.5399 121.89 98.8641 124.368 101.444C128.28 105.511 128.429 111.428 124.476 114.954ZM144.215 124.816C144.892 127.356 146.652 131.463 144.486 132.327C143.43 131.787 143.85 130.544 143.66 129.639C142.983 126.329 141.887 121.803 140.1 118.494C138.827 116.156 136.092 114.279 135.605 111.631C137.094 110.536 138.231 112.914 139.03 113.968C141.954 117.859 143.173 120.898 144.229 124.816H144.215Z" fill="#0CC2FF"/>
<path d="M7.36719 94.0415C7.36719 95.6762 9.28967 97.0812 10.4811 97.9998C9.39798 96.9056 8.46381 95.0277 7.36719 94.0415Z" fill="#E7F2FC"/>
<path d="M99.2542 89.3941C95.6529 85.8681 92.011 82.5853 88.2609 79.8563C86.9611 80.167 85.7156 80.14 84.4023 80.4643C88.0172 83.7066 91.6455 86.8408 95.2197 90.3263C96.6006 89.7994 97.8868 89.8535 99.2542 89.3941Z" fill="#E7F2FC"/>
<path d="M6.39062 85.7869C7.94756 88.5294 11.1156 93.5145 13.6202 95.4598C13.5796 92.8525 8.34018 88.3132 6.39062 85.7869Z" fill="#E7F2FC"/>
<path d="M124.584 91.3798C124.909 92.5686 125.992 93.1225 126.845 93.4873C126.1 92.7442 125.383 91.8796 124.584 91.3798Z" fill="#E7F2FC"/>
<path d="M113.996 88.6643C110.449 84.4628 107.051 79.3831 102.678 79.5588C105.697 82.3552 108.689 85.2463 111.613 88.4616C112.412 88.5292 113.184 88.6372 113.982 88.6643H113.996Z" fill="#E7F2FC"/>
<path d="M120.956 90.2179C117.233 86.6648 113.659 82.4228 109.543 80.9637C111.993 83.355 114.39 85.9893 116.705 89.056C118.14 89.3127 119.548 89.7315 120.956 90.2179Z" fill="#E7F2FC"/>
<path d="M109.11 88.3539C105.86 85.1386 102.652 81.6396 99.2805 79.0457C98.387 79.0863 97.5611 78.8161 96.627 79.0322C100.066 81.5045 103.301 85.017 106.551 88.489C107.417 88.3944 108.27 88.3674 109.11 88.3674V88.3539Z" fill="#E7F2FC"/>
<path d="M104.223 88.6374C99.8907 84.7061 96.0321 78.3295 90.7656 79.3562C94.3263 82.4635 97.914 85.4221 101.393 88.9481C102.341 88.8535 103.248 88.9481 104.223 88.6374Z" fill="#E7F2FC"/>
<path d="M12.6866 78.6535C11.1161 77.0053 9.69453 75.4247 8.63852 73.9116C8.38128 74.506 7.79912 75.5058 8.05636 76.3298C9.13945 79.7613 14.1623 84.0844 16.0712 85.665C18.1291 83.1657 15.1235 81.1933 12.6866 78.64V78.6535Z" fill="#E7F2FC"/>
<path d="M19.1023 78.5317C16.1103 75.3974 13.1724 71.993 10.4241 67.6294C9.74716 68.5075 9.44931 70.4934 9.25977 71.8714C12.1435 75.546 15.1084 78.8154 18.1682 81.6119C18.3848 80.5716 19.1565 79.626 19.1159 78.5317H19.1023Z" fill="#E7F2FC"/>
<path d="M17.3316 69.4128C15.4092 66.846 13.6762 63.9414 12.0787 62.0366C11.835 62.8066 10.7925 64.2386 11.1851 65.4815C12.0516 68.1835 18.848 75.8434 20.3914 76.8431C22.4628 74.3979 19.6332 72.466 17.3316 69.3993V69.4128Z" fill="#E7F2FC"/>
<path d="M22.2459 72.1421C22.5032 71.0748 23.2884 70.0886 23.7893 69.0619C20.5401 64.9549 17.4939 59.7537 14.2446 55.7008C13.8655 57.1193 12.823 58.4027 12.8501 59.8888C15.9505 64.1038 18.8883 69.224 22.2459 72.1285V72.1421Z" fill="#E7F2FC"/>
<path d="M24.9822 67.2381C25.1988 66.4816 25.9299 65.8061 26.3496 65.0901C24.2646 62.7259 22.0714 59.5241 20.1083 56.5655C18.9981 54.9038 16.7507 52.5801 18.3347 51.2967C19.5397 51.3778 19.8104 52.7828 20.4061 53.7285C22.3828 56.8897 25.2259 60.7265 27.3514 63.5905C28.3398 62.5773 29.1791 61.5235 30.8038 60.6319C27.6493 53.4583 23.2898 46.055 23.6825 39.5433C20.2978 44.1231 17.8067 48.865 15.2344 53.6069C18.5107 58.0245 21.5569 63.5905 24.9686 67.2381H24.9822Z" fill="#E7F2FC"/>
<path d="M15.111 87.5435C12.3762 85.382 9.87156 82.0721 7.33984 78.8568C9.08632 81.6398 12.0919 86.1655 14.8944 88.7054C14.7455 88.273 15.3276 87.9758 15.111 87.5435Z" fill="#E7F2FC"/>
<path d="M13.851 91.6366C13.9186 91.7177 13.9863 91.7852 14.0811 91.6771C12.6596 88.4213 9.19367 85.206 6.98688 81.9097C6.47241 83.3687 8.09704 84.6251 9.12598 85.922C10.6965 87.8944 12.3888 90.0695 13.8374 91.6231L13.851 91.6366Z" fill="#E7F2FC"/>
<path d="M116.623 181.543C116 181.813 114.877 181.732 113.888 181.989C112.846 182.259 111.885 182.84 111.018 183.137C109.339 183.705 107.024 183.205 105.21 183.245C101 183.326 98.4272 183.407 94.8665 181.786C93.3908 181.124 91.4413 179.395 89.6406 180.692C90.6425 182.232 92.8087 182.908 94.5145 183.651C98.0887 185.204 101.067 185.11 104.858 185.11C106.51 185.11 108.365 185.245 109.935 185.11C111.505 184.961 112.724 184.056 114.2 183.624C116.23 183.029 118.83 183.367 120.075 181.232C120.279 180.908 120.224 180.53 119.926 180.125C118.735 179.49 117.598 181.151 116.637 181.557L116.623 181.543Z" fill="#0F3187"/>
<path d="M154.841 126.1C153.867 126.505 154.977 129.882 155.085 130.598C156.114 138.299 153.853 146.148 149.561 152.808C148.275 154.808 147.165 156.848 146.082 158.415C145.825 158.793 144.552 159.806 145.08 160.509C145.703 161.346 146.001 160.914 146.976 160.022C148.587 158.577 149.751 155.848 151.051 153.808C154.733 148.026 156.222 143.216 157.048 136.745C157.197 135.556 157.157 133.057 156.886 131.179C156.777 130.477 156.493 125.397 154.828 126.086L154.841 126.1Z" fill="#0F3187"/>
<path d="M91.4286 184.515C89.5738 185.596 93.0939 187.298 93.7437 187.595C95.3819 188.352 96.5327 188.919 97.9407 188.987C98.3062 189.068 98.4552 188.568 98.6718 188.284C98.5906 188.108 98.3875 187.906 98.5229 187.771C96.9795 186.852 94.8133 186.298 93.1887 185.325C92.6065 184.974 92.0514 184.137 91.4151 184.501L91.4286 184.515Z" fill="#0F3187"/>
<path d="M135.821 155.28C133.79 158.036 130.852 160.549 127.86 162.94C126.953 163.656 125.897 164.453 124.814 165.021C123.406 165.75 122.039 165.467 120.82 166.318C121.294 168.912 124.719 167.115 126.398 166.156C127.265 165.656 128.199 165.034 129.025 164.359C132.098 161.86 135.929 158.604 138.096 155.348C138.894 154.146 139.531 152.659 140.289 151.43C140.993 150.282 142.59 148.512 141.033 147.472C138.745 149.377 137.852 152.524 135.821 155.28Z" fill="#0F3187"/>
<path d="M116.717 170.115C116.338 166.467 120.278 170.993 116.717 170.115V170.115Z" fill="#0F3187"/>
<path d="M100.133 172.302C98.089 172.477 96.0853 171.545 93.9326 170.654C90.3043 169.154 87.407 168.424 84.0089 165.655C82.3978 164.345 80.5294 163.21 79.2703 161.994C75.3712 158.238 70.4161 150.74 69.1299 145.998C68.8321 144.864 68.3582 140.635 66.896 141.243C66.0025 141.621 66.6794 143.094 67.0314 144.404C67.6677 146.85 66.896 145.404 67.7219 147.782C68.8998 151.227 72.6635 156.901 74.7891 159.589C77.7811 163.399 80.0827 164.466 83.1559 167.073C84.9159 168.56 86.4593 169.492 88.2194 170.316C91.8071 171.991 95.6114 173.855 98.7253 174.099C100.174 174.207 103.518 173.855 104.249 172.356C103.031 170.748 101.338 172.207 100.16 172.315L100.133 172.302Z" fill="#0F3187"/>
<path d="M129.958 130.098C126.899 130.22 122.526 132.841 120.901 135.854C120.278 137.015 119.696 139.461 120.265 141.163C122.404 147.607 130.148 151.038 134.088 149.782C135.401 149.363 136.958 148.134 138.109 147.04C140.329 144.905 141.209 141.474 140.857 139.488C140.139 135.462 134.589 129.896 129.958 130.098ZM137.418 139.812C138.122 142.46 136.078 144.702 133.032 146.445C128.09 147.593 119.886 139.555 125.694 135.435C126.303 135.002 126.872 135.07 127.643 134.719C128.415 134.368 129.011 133.692 129.674 133.53C132.111 132.935 136.511 136.394 137.418 139.798V139.812Z" fill="#0F3187"/>
<path d="M110.313 149.768C108.445 148.404 105.439 147.863 103.178 148.552C95.6643 150.849 91.6163 160.481 99.3198 165.169C102.339 167.007 108.093 167.142 111.911 163.683C112.953 162.738 113.874 161.859 114.388 160.779C115.932 157.536 114.226 152.632 110.313 149.782V149.768ZM109.46 161.292C108.634 162.021 108.039 162.589 107.104 162.9C104.844 163.629 100.809 162.994 99.2656 160.346C96.3683 155.375 104.261 149.322 108.431 152.673C112.005 155.537 112.29 158.806 109.46 161.292Z" fill="#0F3187"/>
<path d="M143.85 137.042C143.715 139.258 146.923 137.677 145.055 136.421C144.459 136.488 144.31 136.583 143.85 137.042Z" fill="#0F3187"/>
<path d="M135.619 111.645C136.106 114.293 138.841 116.17 140.114 118.508C141.914 121.817 143.011 126.357 143.674 129.653C143.864 130.558 143.444 131.788 144.5 132.341C146.667 131.477 144.906 127.37 144.23 124.83C143.187 120.912 141.969 117.859 139.031 113.982C138.232 112.928 137.095 110.55 135.605 111.645H135.619Z" fill="#0F3187"/>
<path d="M51.2181 149.498C50.2433 148.201 49.3362 146.634 48.2802 145.215C47.4815 144.135 46.5879 142.162 44.9903 142.189C44.1239 143.581 46.615 145.891 47.6575 147.269C53.0323 154.429 58.1228 161.184 64.2016 165.791C65.4743 166.75 69.3598 170.573 69.3463 167.966C68.7777 166.763 66.5438 165.345 64.7973 163.967C59.9505 160.171 55.2391 154.834 51.2316 149.498H51.2181Z" fill="#0F3187"/>
<path d="M97.6008 123.763C95.9355 125.735 95.0285 129.653 95.746 132.328C97.4248 138.691 102.569 140.798 106.766 140.42C107.795 140.325 109.23 140.542 110.07 140.19C111.085 139.772 112.94 138.137 113.441 137.691C116.203 135.151 116.447 132.99 116.433 130.18C116.433 128.91 116.433 126.424 115.81 125.127C113.752 120.736 108.567 118.764 104.438 119.494C102.258 119.885 99.266 121.777 97.6008 123.749V123.763ZM108.784 132.963C106.726 134.138 105.602 135.84 103.869 134.692C102.624 133.868 101.879 131.936 101.08 130.315C101.486 127.302 105.873 125.586 107.985 127.64C109.474 129.085 109.352 131.301 108.784 132.976V132.963Z" fill="#0F3187"/>
<path d="M89.4214 145.958C91.2491 144.148 92.2104 140.041 91.4657 137.677C89.9359 132.827 83.3832 128.314 79.7413 129.449C77.5345 130.138 76.4243 131.908 75.5443 133.124C73.852 135.475 73.0126 138.001 73.2563 140.77C73.6895 145.728 77.697 147.998 80.5536 148.768C83.4103 149.538 86.3888 148.957 89.4079 145.972L89.4214 145.958ZM76.7086 141.041C76.5326 140.162 76.817 137.46 77.3585 136.353C77.9271 135.177 79.4705 133.205 80.4318 132.84C82.097 132.192 86.8491 135.096 88.1758 138.514C88.582 139.581 88.054 142.391 87.1198 143.499C85.1026 145.89 83.2207 145.904 81.3253 145.431C79.7142 145.026 77.3314 144.013 76.7222 141.068L76.7086 141.041Z" fill="#0F3187"/>
<path d="M124.38 101.458C121.889 98.8779 116.636 98.5537 113.387 100.229C107.836 103.093 108.743 111.01 113.319 114.671C116.555 117.265 120.914 118.156 124.488 114.968C128.442 111.442 128.306 105.525 124.38 101.458ZM121.767 112.766C120.007 114.009 117.056 113.576 115.296 111.915C113.143 109.888 112.195 105.619 113.766 104.039C115.309 102.485 119.019 102.147 120.833 103.079C124.543 104.998 125.057 110.456 121.781 112.779L121.767 112.766Z" fill="#0F3187"/>
<path d="M124.273 79.0321C123.434 78.4647 122.216 76.6949 121.092 77.9513C121.823 80.0453 124.165 80.991 125.844 82.2203C131.219 86.1381 136.783 90.4747 141.359 96.5811C142.226 97.7429 142.889 99.5127 144.189 99.5262C144.283 99.4587 144.378 99.4046 144.473 99.3371C144.595 99.1614 144.69 98.9723 144.703 98.7832C144.243 96.9864 141.251 93.3928 139.45 91.4069C134.63 86.0841 129.161 82.3284 124.287 79.0456L124.273 79.0321Z" fill="#0F3187"/>
<path d="M49.3085 153.835C47.9952 154.888 50.5269 157.266 51.3528 158.32C53.9387 157.874 50.4186 154.375 49.8094 153.7C49.6334 153.794 49.4303 153.983 49.2949 153.848L49.3085 153.835Z" fill="#0F3187"/>
<path d="M67.668 135.84C66.2193 135.556 65.8267 137.745 67.1399 138.029C68.1012 137.731 68.5073 136.813 67.668 135.84Z" fill="#0F3187"/>
<path d="M89.0984 121.452C91.1698 121.384 92.1987 121.303 94.3243 119.304C96.856 116.926 97.7631 113.481 97.208 111.049C95.7729 104.848 89.6399 104.227 85.7002 106.118C79.6213 109.036 79.161 114.629 84.0891 119.79C85.646 121.425 87.2571 121.506 89.0848 121.452H89.0984ZM83.9672 112.171C85.6054 109.091 90.7365 107.456 92.6861 109.469C94.595 111.455 94.04 115.616 91.6978 117.237C90.3981 118.128 89.0713 117.561 87.6633 118.169C85.8491 117.115 84.238 114.022 83.9672 112.171Z" fill="#0F3187"/>
<path d="M136.09 83.5445C136.212 85.1116 138.215 85.8006 139.15 87.1246C141.817 86.4221 137.566 81.8288 136.09 83.5445Z" fill="#0F3187"/>
<path d="M92.7961 98.0541C95.4632 96.6491 98.5365 95.9061 101.745 95.4063C106.754 94.6227 111.154 93.1772 115.324 94.4606C116.543 94.8388 117.667 96.433 118.303 94.6632C116.678 92.7178 113.172 91.8532 110.599 92.0153C108.068 92.1774 104.818 93.0691 101.732 93.596C98.4147 94.1769 95.3685 94.9064 92.5524 96.2033C91.2527 96.7977 89.2219 97.5408 88.9512 99.2565C90.7112 100.472 91.7131 98.6351 92.8097 98.0541H92.7961Z" fill="#0F3187"/>
<path d="M84.781 100.876C84.1853 101.147 84.0499 101.241 83.7656 101.768C84.0635 102.376 83.9687 102.241 84.429 102.741C85.7152 102.889 86.0266 101.214 84.781 100.876Z" fill="#0F3187"/>
<path d="M3.19648 119.993C2.18109 118.237 2.15401 116.076 0.718917 115.197C-1.08172 116.589 0.935535 119.723 1.95093 121.452C2.57371 122.506 3.54849 123.911 4.50973 125.181C7.84023 129.599 13.1067 135.124 17.1142 133.814C17.4662 133.638 16.9923 133.314 17.2496 133.111C16.0446 131.922 14.4065 132.017 12.9037 131.206C9.35655 129.302 5.53866 124.046 3.19648 119.993Z" fill="#0F3187"/>
<path d="M23.5183 115.264C24.5878 118.898 25.6438 122.911 27.5392 125.896C27.8506 125.964 28.2297 125.626 28.5953 125.369C28.5005 125.153 28.6629 124.977 28.5953 124.761C27.2955 121.56 26.2802 118.061 25.3731 115.007C25.1023 114.089 25.0481 112.305 23.7214 112.292C22.4893 112.765 23.2746 114.413 23.5183 115.264Z" fill="#0F3187"/>
<path d="M80.4605 73.2092C75.4783 74.8979 69.8733 76.9243 64.8098 80.018C63.5914 80.7611 62.3323 81.7878 61.0732 82.5714C60.288 83.0577 58.1489 83.5981 58.8258 84.922C60.0578 86.1244 63.0363 83.1388 64.7963 82.0715C74.6253 76.1543 85.7541 73.1821 94.8385 72.5472C95.2582 72.6553 95.3529 71.6826 95.1905 71.2908C93.0378 70.6964 90.479 71.1557 88.0286 71.5069C85.6322 71.8582 82.8703 72.3986 80.4605 73.2227V73.2092Z" fill="#0F3187"/>
<path d="M1.20584 124.789C-0.432332 125.722 3.52094 131.071 5.22681 130.963C5.68712 131.193 5.67358 130.342 5.87666 130.126C4.19787 128.991 2.64093 123.979 1.20584 124.789Z" fill="#0F3187"/>
<path d="M54.6984 86.314C51.2596 86.4761 56.147 89.7724 54.6984 86.314V86.314Z" fill="#0F3187"/>
<path d="M37.8968 60.8752C38.5466 61.9695 39.3319 63.2259 40.2525 63.7258C40.8617 63.4285 40.7263 63.5231 41.2273 63.0638C39.6703 60.4564 38.1946 56.6602 36.6241 54.8499C35.013 56.1063 36.6918 58.8488 37.9103 60.8752H37.8968Z" fill="#0F3187"/>
<path d="M7.19043 56.6599C8.0569 57.1192 8.43598 56.5924 8.62552 56.079C10.02 52.3233 10.7511 48.0137 12.7683 43.7312C14.3659 40.3267 16.0311 38.1517 18.4004 35.031C18.9419 34.3149 20.4041 33.1666 19.7136 31.9102C18.2921 31.4239 17.6828 33.0856 17.0465 33.9367C16.2613 34.9769 15.2188 35.9496 14.42 36.9358C11.3603 40.7861 9.68153 45.5685 8.61198 49.8105C8.02982 52.0801 6.91965 54.3903 7.20397 56.6464L7.19043 56.6599Z" fill="#0F3187"/>
<path d="M7.62573 41.5699C7.34142 41.5699 7.09773 41.3943 6.82695 41.2997C5.7574 42.1373 5.98756 43.0154 5.64909 44.3258C5.41894 45.2445 4.02446 48.8651 6.20418 47.7978C7.51742 47.1629 7.77466 42.9884 7.62573 41.5564V41.5699Z" fill="#0F3187"/>
<path d="M123.756 83.6384C119.234 80.3826 115.037 79.0181 110.38 77.7482C107.929 77.0862 105.506 76.4648 103.096 76.019C95.7985 74.641 87.2691 75.9244 79.7688 78.14C76.9798 78.9641 74.3939 80.3285 71.3884 81.6255C68.5994 82.8278 65.9052 84.6246 62.9673 85.9485C56.523 88.8261 50.4712 93.0951 44.2028 97.7155C40.9806 100.093 37.3658 103.079 33.5344 104.984C32.3024 105.605 30.4205 105.943 28.85 106.159C24.6395 106.713 21.0383 106.943 17.6265 104.889C16.1779 101.417 16.4216 96.2699 17.0715 93.1087C17.7213 89.9339 19.5896 86.3809 21.3361 82.7062C23.0555 79.0586 24.3688 75.2354 25.8309 72.3443C27.09 69.8585 29.202 66.265 31.1922 64.4412C32.4784 63.2658 34.1301 62.8876 34.5092 61.5771C34.9966 59.9019 32.2347 55.2411 31.0568 52.985C28.2273 47.5406 27.5774 44.1497 27.0494 39.705C26.9005 38.5432 27.4285 36.2736 25.7362 35.1252C24.45 34.2471 21.9047 36.1925 20.5103 37.8812C19.0752 39.5969 17.9515 42.0422 16.6247 44.3793C15.3385 46.6219 13.8763 48.851 12.8339 51.0126C10.6271 55.6059 9.02952 60.037 7.59442 64.7114C6.17287 69.3317 4.54824 73.9114 3.88485 78.5858C2.97776 84.9894 1.54267 91.0687 4.41285 97.4723C4.20977 102.16 4.85962 108.01 6.36241 113.373C6.87688 115.197 7.54027 117.372 8.43382 119.061C11.7102 125.275 15.9207 127.058 20.2124 128.261C22.1755 128.815 24.1928 129.639 25.9528 129.828C33.1147 130.584 40.7505 128.923 47.9936 124.937C47.6823 127.248 47.1949 129.571 47.2761 131.908C47.3573 133.894 48.0343 137.839 48.8466 139.555C50.2004 142.365 52.5832 145.08 54.4245 147.715C56.2657 150.336 58.4184 152.646 60.3679 154.618C62.3716 156.645 64.267 158.806 66.352 160.684C68.3692 162.508 70.8197 164.007 72.5933 165.953C74.1908 167.695 75.0167 168.992 76.5059 170.181C80.0801 173.032 83.3971 173.748 87.3639 175.355C89.7061 176.301 91.967 177.72 93.8218 178.26C98.804 179.719 105.045 179.206 110.434 178.49C112.451 178.233 114.59 178.219 116.242 177.774C119.017 177.031 122.591 174.666 125.543 172.653C130.159 169.506 135.873 167.493 137.538 163.467C142.087 159.238 145.648 154.902 147.015 149.714C148.369 144.58 150.413 139.785 150.806 134.772C150.941 133.016 150.752 131.084 150.643 129.206C150.549 127.288 150.67 125.289 150.4 123.492C150.237 122.438 149.587 121.56 149.303 120.398C149.032 119.344 149.168 118.237 148.802 117.291C146.352 110.941 141.315 103.146 136.292 96.6347C132.285 91.4335 127.858 86.624 123.769 83.6789L123.756 83.6384ZM15.2437 53.6064C17.8161 48.8646 20.3072 44.1227 23.6918 39.5429C23.2992 46.0545 27.6586 53.4578 30.8131 60.6315C29.1885 61.5231 28.3491 62.5768 27.3608 63.5901C25.2217 60.7395 22.3921 56.9028 20.4155 53.728C19.8198 52.7824 19.549 51.3638 18.3441 51.2963C16.7736 52.5932 19.021 54.9034 20.1176 56.5651C22.0807 59.5237 24.274 62.7255 26.3589 65.0896C25.9392 65.8192 25.2082 66.4811 24.9915 67.2377C21.5798 63.5901 18.5336 58.0106 15.2573 53.6064H15.2437ZM14.2419 55.7004C17.5047 59.7533 20.5373 64.9545 23.7866 69.0615C23.2857 70.0882 22.5004 71.0609 22.2432 72.1417C18.8856 69.2371 15.9477 64.1169 12.8474 59.9019C12.8203 58.4159 13.8628 57.119 14.2419 55.7139V55.7004ZM11.1822 65.4814C10.776 64.2385 11.832 62.8065 12.0757 62.0365C13.6733 63.9278 15.3927 66.8459 17.3287 69.4127C19.6302 72.4659 22.4598 74.4113 20.3884 76.8565C18.845 75.8568 12.0486 68.1969 11.1822 65.4949V65.4814ZM10.4105 67.6295C13.1723 71.9931 16.1102 75.3975 19.0887 78.5317C19.1293 79.626 18.3576 80.5582 18.141 81.6119C15.0948 78.8154 12.1299 75.5461 9.2326 71.8715C9.42214 70.4935 9.71999 68.5076 10.3969 67.6295H10.4105ZM8.0412 76.3432C7.77043 75.5056 8.36613 74.5059 8.62336 73.925C9.69291 75.4245 11.1009 77.0052 12.6714 78.6668C15.0948 81.2202 18.1139 83.1926 16.0561 85.6919C14.1606 84.1112 9.12429 79.7881 8.0412 76.3567V76.3432ZM7.32365 78.856C9.85537 82.0713 12.3736 85.3811 15.0948 87.5427C15.3114 87.9885 14.7293 88.2722 14.8782 88.7045C12.0757 86.1647 9.07013 81.639 7.32365 78.856ZM6.98519 81.9227C9.19198 85.219 12.6579 88.4208 14.0794 91.6901C13.9711 91.7982 13.917 91.7307 13.8493 91.6496C12.4006 90.096 10.7083 87.921 9.13783 85.9485C8.09535 84.6516 6.48426 83.3817 6.99873 81.9362L6.98519 81.9227ZM6.37595 85.7864C8.32551 88.3127 13.565 92.852 13.6056 95.4593C11.1009 93.514 7.93289 88.5289 6.37595 85.7864ZM124.568 91.3929C125.353 91.8928 126.084 92.7574 126.829 93.5004C125.99 93.1357 124.906 92.5818 124.568 91.3929ZM120.926 90.2176C119.518 89.7448 118.124 89.3124 116.675 89.0558C114.36 85.9891 111.964 83.3547 109.513 80.9635C113.629 82.409 117.203 86.651 120.926 90.2176ZM113.967 88.6775C113.169 88.6505 112.383 88.5289 111.598 88.4748C108.674 85.2595 105.668 82.3685 102.663 79.572C107.036 79.4099 110.434 84.476 113.981 88.6775H113.967ZM99.2508 79.0451C102.622 81.639 105.831 85.138 109.08 88.3533C108.24 88.3533 107.388 88.3803 106.521 88.4748C103.272 85.0029 100.036 81.5039 96.5972 79.0181C97.5179 78.8154 98.3573 79.0721 99.2508 79.0316V79.0451ZM104.192 88.6505C103.204 88.9612 102.297 88.8666 101.363 88.9612C97.8834 85.4487 94.2957 82.4766 90.735 79.3693C96.0015 78.3426 99.86 84.7192 104.192 88.6505ZM88.2304 79.8692C91.9806 82.5981 95.6225 85.881 99.2237 89.407C97.8428 89.8663 96.5702 89.7988 95.1892 90.3392C91.6286 86.8537 87.9867 83.733 84.3719 80.4771C85.6851 80.1664 86.9171 80.1934 88.2304 79.8692ZM82.1922 81.1391C85.9017 84.0707 89.5436 87.4076 93.1449 90.9066C92.0753 91.2038 91.0193 91.5145 89.855 92.3386C85.8882 89.2854 81.9755 85.908 78.1035 82.3009C79.4709 81.8551 80.8654 81.3282 82.1922 81.1391ZM76.3976 83.0575C80.1478 86.8402 84.0334 89.9339 87.9055 93.0546C86.9578 94.2164 85.1436 94.5002 83.7897 95.6485C80.906 93.4869 77.8869 90.3527 75.0438 87.6237C74.1773 86.7861 73.2973 85.4757 72.0382 85.6108C70.901 86.8132 72.7151 87.8939 73.5139 88.664C76.181 91.2038 79.4709 94.4191 82.1245 96.7833C80.8789 97.6344 79.6334 98.4855 78.3878 99.3366C74.5293 95.4458 70.5083 92.4737 66.8123 87.7723C70.1157 85.6243 73.2025 84.6381 76.3976 83.071V83.0575ZM7.33719 94.0408C8.43382 95.027 9.36798 96.9049 10.4511 97.9992C9.25967 97.0805 7.33719 95.6755 7.33719 94.0408ZM15.325 122.033C11.48 119.466 11.128 113.819 9.84183 110.158C9.77414 109.834 10.0449 110.131 10.1668 110.333C11.1145 114.089 13.3077 118.074 15.325 122.019V122.033ZM20.8487 124.762C19.6709 124.816 18.6284 124.194 17.5318 123.776C17.4235 123.384 17.8567 123.114 17.613 122.708C14.093 116.305 11.8997 110.158 9.44921 103.943C11.2498 105.497 13.0505 107.037 15.0271 107.645C15.3656 113.049 19.2106 119.115 20.8487 124.762ZM22.9066 125.383C21.2143 119.844 18.3576 114.089 16.6653 108.55C19.373 109.064 22.1349 110.266 25.0592 110.131C28.0783 109.982 31.9368 109.482 34.8612 108.118C36.9191 107.159 38.8145 105.443 40.9536 103.97C43.9456 101.917 46.5179 100.026 50.1869 97.2696C55.2368 93.4869 60.2325 90.9336 65.3501 88.5559C68.5588 93.3248 73.1213 96.3915 76.885 100.363C75.2469 101.336 74.7053 102.525 73.1484 103.511C70.6979 100.377 67.2049 97.9991 63.9827 94.5677C63.1704 93.7031 61.6812 91.6226 60.7876 92.2846C59.6233 93.1492 61.8166 95 62.6424 95.8917C65.7428 99.1745 69.1409 101.566 72.0924 104.659C71.1582 105.997 69.5606 106.51 68.0308 107.632C66.2166 105.281 63.5224 103.2 60.9772 100.282C60.3002 99.5122 59.3796 98.0262 58.5402 98.499C56.9968 99.3636 61.0855 103.241 62.0467 104.214C63.8203 106.01 65.5668 107.415 67.1643 108.429C66.7311 109.428 65.8646 110.347 64.592 111.198C63.3058 109.685 61.2886 108.699 59.6639 107.267C58.0393 105.821 56.902 103.417 54.7765 103.092C53.8694 105.038 56.7802 106.78 58.1882 108.064C59.9347 109.658 61.6676 111.009 63.0756 112.238C61.7895 113.089 60.4627 114.143 59.2442 114.657C57.8633 113.292 56.2657 111.779 54.7765 110.198C53.3414 108.685 51.9469 106.78 50.1734 106.443C48.8466 107.753 50.6878 108.55 51.5543 109.347C53.4903 111.104 55.6971 114.062 57.6196 115.548C56.6583 116.21 55.6836 116.872 54.7088 117.534C53.4903 117.872 50.0786 111.671 48.657 113.143C47.4115 114.427 51.9604 117.183 52.7186 118.48C42.0502 124.708 31.7608 128.882 22.9337 125.41L22.9066 125.383ZM63.2787 116.116C63.3329 117.169 62.2498 118.007 62.2363 119.047C61.5999 119.182 61.1802 118.21 60.6793 117.669C61.4781 117.494 62.3987 116.642 63.2652 116.116H63.2787ZM61.4239 120.817C61.2209 121.263 60.8959 121.682 60.923 122.168C59.7858 121.844 58.8516 120.385 57.8227 119.412C58.1882 119.155 58.5538 118.912 58.9328 118.655C59.7858 119.263 60.5168 120.52 61.4239 120.803V120.817ZM60.3138 125.424C58.5944 124.316 57.0103 122.465 55.3316 121.114C55.6565 120.898 55.9814 120.682 56.2928 120.452C57.5248 122.317 60.6116 123.411 60.3002 125.424H60.3138ZM59.8128 130.625C57.1728 129.071 54.79 126.086 52.2041 124.262C52.7457 123.478 52.1771 122.492 53.6122 121.871C56.0491 124.802 60.9772 126.788 59.7993 130.625H59.8128ZM51.4324 125.802C52.6915 126.856 53.91 128.207 55.4263 129.571C57.5384 131.449 60.0836 132.3 59.7181 134.962C58.4184 134.408 57.5654 133.259 56.1033 131.746C55.3316 130.949 53.3008 128.261 52.3531 129.233C51.3106 130.314 54.9389 133.124 55.8054 133.975C57.6467 135.799 58.7839 136.88 60.3679 137.961C60.6793 138.582 60.5845 139.123 60.9907 139.771C57.9445 137.326 55.0473 134.151 52.1906 130.774C51.8115 130.409 51.3918 130.274 50.8909 130.652C50.9315 129.017 50.6878 127.329 51.446 125.816L51.4324 125.802ZM64.1858 151.565C59.8941 148.228 54.6682 143.243 51.6897 137.177C53.734 138.704 55.318 140.919 57.2405 142.919C59.9753 145.769 63.1433 147.755 64.1723 151.565H64.1858ZM62.0196 145.134C60.1648 143.175 57.9716 141.095 55.9543 138.933C53.9777 136.826 51.6491 134.732 50.8097 132.3C52.6645 133.881 54.3432 135.921 56.2657 137.907C58.6756 140.392 61.8166 142.189 62.2498 145.175C62.155 145.283 62.0873 145.202 62.0196 145.121V145.134ZM146.988 124.735C147.299 126.032 147.232 128.193 147.326 129.976C147.421 131.746 147.489 133.638 147.326 135.043C146.866 139.082 144.971 143.567 143.793 147.985C143.224 150.146 142.439 152.2 141.031 154.334C139.731 156.293 138.039 158.657 136.306 160.184C135.453 160.941 134.235 161.278 133.531 162.075C132.854 162.845 133.3 163.521 132.488 164.413C131.012 166.034 128.223 166.871 126.111 168.155C123.228 169.884 120.858 171.937 118.394 173.207C114.685 175.126 110.163 175.058 106.142 175.477C101.918 175.909 97.7209 175.896 94.5529 174.869C92.0618 174.058 89.5166 172.613 86.8359 171.613C83.3836 170.33 80.8518 169.587 78.0764 166.236C77.1152 165.075 75.7072 164.277 74.7865 163.21C72.1601 160.157 69.8314 155.807 68.0579 152.186C66.7175 149.471 65.9188 146.148 65.296 143.121C64.6732 140.014 63.1163 136.664 62.8726 134.232C62.7101 132.719 63.1163 130.679 63.2787 128.896C63.6984 124.059 64.8898 120.844 67.5975 116.224C68.9243 113.941 70.2782 110.347 73.189 108.361C72.6881 109.861 71.3748 110.739 70.4407 112.063C67.6652 115.994 66.5686 121.614 66.176 126.315C66.0541 127.761 65.3637 130.071 67.1508 130.72C68.3151 129.733 67.76 128.099 67.8548 127.004C68.3557 120.803 69.9126 115.481 74.5022 109.712C75.1115 108.942 76.1269 108.469 76.6143 107.456C76.8038 106.51 75.3552 106.362 75.3958 106.267C84.047 98.526 92.7794 93.541 101.431 92.3791C102.256 92.2711 103.109 92.3791 103.989 92.2575C109.784 91.5415 115.822 91.555 121.129 94.1489C127.059 97.04 133.327 101.849 138.404 108.118C142.75 113.481 145.729 119.669 146.961 124.789L146.988 124.735Z" fill="#0F3187"/>
</g>
<defs>
<clipPath id="clip0_1026_1654">
<rect width="226" height="189" fill="white"/>
</clipPath>
</defs>
</svg>
